G04 #@! TF.GenerationSoftware,KiCad,Pcbnew,(5.0.1-3-g963ef8bb5)*
G04 #@! TF.CreationDate,2018-11-25T15:23:06-05:00*
G04 #@! TF.ProjectId,usb-hub,7573622D6875622E6B696361645F7063,rev?*
G04 #@! TF.SameCoordinates,Original*
G04 #@! TF.FileFunction,Legend,Top*
G04 #@! TF.FilePolarity,Positive*
%FSLAX46Y46*%
G04 Gerber Fmt 4.6, Leading zero omitted, Abs format (unit mm)*
G04 Created by KiCad (PCBNEW (5.0.1-3-g963ef8bb5)) date Sunday, November 25, 2018 at 03:23:06 PM*
%MOMM*%
%LPD*%
G01*
G04 APERTURE LIST*
%ADD10C,0.250000*%
%ADD11C,0.300000*%
%ADD12C,0.120000*%
%ADD13C,0.150000*%
G04 APERTURE END LIST*
D10*
X24352976Y-21797619D02*
X24400595Y-21750000D01*
X24495833Y-21702380D01*
X24733928Y-21702380D01*
X24829166Y-21750000D01*
X24876785Y-21797619D01*
X24924404Y-21892857D01*
X24924404Y-21988095D01*
X24876785Y-22130952D01*
X24305357Y-22702380D01*
X24924404Y-22702380D01*
X25543452Y-21702380D02*
X25638690Y-21702380D01*
X25733928Y-21750000D01*
X25781547Y-21797619D01*
X25829166Y-21892857D01*
X25876785Y-22083333D01*
X25876785Y-22321428D01*
X25829166Y-22511904D01*
X25781547Y-22607142D01*
X25733928Y-22654761D01*
X25638690Y-22702380D01*
X25543452Y-22702380D01*
X25448214Y-22654761D01*
X25400595Y-22607142D01*
X25352976Y-22511904D01*
X25305357Y-22321428D01*
X25305357Y-22083333D01*
X25352976Y-21892857D01*
X25400595Y-21797619D01*
X25448214Y-21750000D01*
X25543452Y-21702380D01*
X26829166Y-22702380D02*
X26257738Y-22702380D01*
X26543452Y-22702380D02*
X26543452Y-21702380D01*
X26448214Y-21845238D01*
X26352976Y-21940476D01*
X26257738Y-21988095D01*
X27400595Y-22130952D02*
X27305357Y-22083333D01*
X27257738Y-22035714D01*
X27210119Y-21940476D01*
X27210119Y-21892857D01*
X27257738Y-21797619D01*
X27305357Y-21750000D01*
X27400595Y-21702380D01*
X27591071Y-21702380D01*
X27686309Y-21750000D01*
X27733928Y-21797619D01*
X27781547Y-21892857D01*
X27781547Y-21940476D01*
X27733928Y-22035714D01*
X27686309Y-22083333D01*
X27591071Y-22130952D01*
X27400595Y-22130952D01*
X27305357Y-22178571D01*
X27257738Y-22226190D01*
X27210119Y-22321428D01*
X27210119Y-22511904D01*
X27257738Y-22607142D01*
X27305357Y-22654761D01*
X27400595Y-22702380D01*
X27591071Y-22702380D01*
X27686309Y-22654761D01*
X27733928Y-22607142D01*
X27781547Y-22511904D01*
X27781547Y-22321428D01*
X27733928Y-22226190D01*
X27686309Y-22178571D01*
X27591071Y-22130952D01*
X28210119Y-22321428D02*
X28972023Y-22321428D01*
X29972023Y-22702380D02*
X29400595Y-22702380D01*
X29686309Y-22702380D02*
X29686309Y-21702380D01*
X29591071Y-21845238D01*
X29495833Y-21940476D01*
X29400595Y-21988095D01*
X30924404Y-22702380D02*
X30352976Y-22702380D01*
X30638690Y-22702380D02*
X30638690Y-21702380D01*
X30543452Y-21845238D01*
X30448214Y-21940476D01*
X30352976Y-21988095D01*
X31352976Y-22321428D02*
X32114880Y-22321428D01*
X32543452Y-21797619D02*
X32591071Y-21750000D01*
X32686309Y-21702380D01*
X32924404Y-21702380D01*
X33019642Y-21750000D01*
X33067261Y-21797619D01*
X33114880Y-21892857D01*
X33114880Y-21988095D01*
X33067261Y-22130952D01*
X32495833Y-22702380D01*
X33114880Y-22702380D01*
X34019642Y-21702380D02*
X33543452Y-21702380D01*
X33495833Y-22178571D01*
X33543452Y-22130952D01*
X33638690Y-22083333D01*
X33876785Y-22083333D01*
X33972023Y-22130952D01*
X34019642Y-22178571D01*
X34067261Y-22273809D01*
X34067261Y-22511904D01*
X34019642Y-22607142D01*
X33972023Y-22654761D01*
X33876785Y-22702380D01*
X33638690Y-22702380D01*
X33543452Y-22654761D01*
X33495833Y-22607142D01*
X35210119Y-21654761D02*
X34352976Y-22940476D01*
X35543452Y-22702380D02*
X35543452Y-22035714D01*
X35543452Y-22226190D02*
X35591071Y-22130952D01*
X35638690Y-22083333D01*
X35733928Y-22035714D01*
X35829166Y-22035714D01*
X36352976Y-21702380D02*
X36448214Y-21702380D01*
X36543452Y-21750000D01*
X36591071Y-21797619D01*
X36638690Y-21892857D01*
X36686309Y-22083333D01*
X36686309Y-22321428D01*
X36638690Y-22511904D01*
X36591071Y-22607142D01*
X36543452Y-22654761D01*
X36448214Y-22702380D01*
X36352976Y-22702380D01*
X36257738Y-22654761D01*
X36210119Y-22607142D01*
X36162500Y-22511904D01*
X36114880Y-22321428D01*
X36114880Y-22083333D01*
X36162500Y-21892857D01*
X36210119Y-21797619D01*
X36257738Y-21750000D01*
X36352976Y-21702380D01*
D11*
X24552142Y-19178571D02*
X24552142Y-20392857D01*
X24623571Y-20535714D01*
X24695000Y-20607142D01*
X24837857Y-20678571D01*
X25123571Y-20678571D01*
X25266428Y-20607142D01*
X25337857Y-20535714D01*
X25409285Y-20392857D01*
X25409285Y-19178571D01*
X26052142Y-20607142D02*
X26266428Y-20678571D01*
X26623571Y-20678571D01*
X26766428Y-20607142D01*
X26837857Y-20535714D01*
X26909285Y-20392857D01*
X26909285Y-20250000D01*
X26837857Y-20107142D01*
X26766428Y-20035714D01*
X26623571Y-19964285D01*
X26337857Y-19892857D01*
X26195000Y-19821428D01*
X26123571Y-19750000D01*
X26052142Y-19607142D01*
X26052142Y-19464285D01*
X26123571Y-19321428D01*
X26195000Y-19250000D01*
X26337857Y-19178571D01*
X26695000Y-19178571D01*
X26909285Y-19250000D01*
X28052142Y-19892857D02*
X28266428Y-19964285D01*
X28337857Y-20035714D01*
X28409285Y-20178571D01*
X28409285Y-20392857D01*
X28337857Y-20535714D01*
X28266428Y-20607142D01*
X28123571Y-20678571D01*
X27552142Y-20678571D01*
X27552142Y-19178571D01*
X28052142Y-19178571D01*
X28195000Y-19250000D01*
X28266428Y-19321428D01*
X28337857Y-19464285D01*
X28337857Y-19607142D01*
X28266428Y-19750000D01*
X28195000Y-19821428D01*
X28052142Y-19892857D01*
X27552142Y-19892857D01*
X30123571Y-19321428D02*
X30195000Y-19250000D01*
X30337857Y-19178571D01*
X30695000Y-19178571D01*
X30837857Y-19250000D01*
X30909285Y-19321428D01*
X30980714Y-19464285D01*
X30980714Y-19607142D01*
X30909285Y-19821428D01*
X30052142Y-20678571D01*
X30980714Y-20678571D01*
X31623571Y-20535714D02*
X31695000Y-20607142D01*
X31623571Y-20678571D01*
X31552142Y-20607142D01*
X31623571Y-20535714D01*
X31623571Y-20678571D01*
X32623571Y-19178571D02*
X32766428Y-19178571D01*
X32909285Y-19250000D01*
X32980714Y-19321428D01*
X33052142Y-19464285D01*
X33123571Y-19750000D01*
X33123571Y-20107142D01*
X33052142Y-20392857D01*
X32980714Y-20535714D01*
X32909285Y-20607142D01*
X32766428Y-20678571D01*
X32623571Y-20678571D01*
X32480714Y-20607142D01*
X32409285Y-20535714D01*
X32337857Y-20392857D01*
X32266428Y-20107142D01*
X32266428Y-19750000D01*
X32337857Y-19464285D01*
X32409285Y-19321428D01*
X32480714Y-19250000D01*
X32623571Y-19178571D01*
X34909285Y-20678571D02*
X34909285Y-19178571D01*
X35552142Y-20678571D02*
X35552142Y-19892857D01*
X35480714Y-19750000D01*
X35337857Y-19678571D01*
X35123571Y-19678571D01*
X34980714Y-19750000D01*
X34909285Y-19821428D01*
X36909285Y-19678571D02*
X36909285Y-20678571D01*
X36266428Y-19678571D02*
X36266428Y-20464285D01*
X36337857Y-20607142D01*
X36480714Y-20678571D01*
X36695000Y-20678571D01*
X36837857Y-20607142D01*
X36909285Y-20535714D01*
X37623571Y-20678571D02*
X37623571Y-19178571D01*
X37623571Y-19750000D02*
X37766428Y-19678571D01*
X38052142Y-19678571D01*
X38195000Y-19750000D01*
X38266428Y-19821428D01*
X38337857Y-19964285D01*
X38337857Y-20392857D01*
X38266428Y-20535714D01*
X38195000Y-20607142D01*
X38052142Y-20678571D01*
X37766428Y-20678571D01*
X37623571Y-20607142D01*
D10*
X75540000Y-20825595D02*
X75492380Y-20920833D01*
X75492380Y-21063690D01*
X75540000Y-21206547D01*
X75635238Y-21301785D01*
X75730476Y-21349404D01*
X75920952Y-21397023D01*
X76063809Y-21397023D01*
X76254285Y-21349404D01*
X76349523Y-21301785D01*
X76444761Y-21206547D01*
X76492380Y-21063690D01*
X76492380Y-20968452D01*
X76444761Y-20825595D01*
X76397142Y-20777976D01*
X76063809Y-20777976D01*
X76063809Y-20968452D01*
X76492380Y-20349404D02*
X75492380Y-20349404D01*
X76492380Y-19777976D01*
X75492380Y-19777976D01*
X76492380Y-19301785D02*
X75492380Y-19301785D01*
X75492380Y-19063690D01*
X75540000Y-18920833D01*
X75635238Y-18825595D01*
X75730476Y-18777976D01*
X75920952Y-18730357D01*
X76063809Y-18730357D01*
X76254285Y-18777976D01*
X76349523Y-18825595D01*
X76444761Y-18920833D01*
X76492380Y-19063690D01*
X76492380Y-19301785D01*
X73571428Y-21349404D02*
X73571428Y-20587500D01*
X73952380Y-20968452D02*
X73190476Y-20968452D01*
X72952380Y-19635119D02*
X72952380Y-20111309D01*
X73428571Y-20158928D01*
X73380952Y-20111309D01*
X73333333Y-20016071D01*
X73333333Y-19777976D01*
X73380952Y-19682738D01*
X73428571Y-19635119D01*
X73523809Y-19587500D01*
X73761904Y-19587500D01*
X73857142Y-19635119D01*
X73904761Y-19682738D01*
X73952380Y-19777976D01*
X73952380Y-20016071D01*
X73904761Y-20111309D01*
X73857142Y-20158928D01*
X72952380Y-19301785D02*
X73952380Y-18968452D01*
X72952380Y-18635119D01*
D12*
G04 #@! TO.C,C1*
X47650000Y-23900000D02*
X48350000Y-23900000D01*
X48350000Y-25100000D02*
X47650000Y-25100000D01*
G04 #@! TO.C,C2*
X58600000Y-18150000D02*
X58600000Y-18850000D01*
X57400000Y-18850000D02*
X57400000Y-18150000D01*
G04 #@! TO.C,C3*
X62600000Y-18150000D02*
X62600000Y-18850000D01*
X61400000Y-18850000D02*
X61400000Y-18150000D01*
G04 #@! TO.C,C4*
X58900000Y-18850000D02*
X58900000Y-18150000D01*
X60100000Y-18150000D02*
X60100000Y-18850000D01*
G04 #@! TO.C,C5*
X50850000Y-19100000D02*
X50150000Y-19100000D01*
X50150000Y-17900000D02*
X50850000Y-17900000D01*
G04 #@! TO.C,C6*
X97300000Y-35300000D02*
X97300000Y-33120000D01*
X97300000Y-28700000D02*
X97300000Y-30880000D01*
X90700000Y-34540000D02*
X90700000Y-33120000D01*
X90700000Y-29460000D02*
X90700000Y-30880000D01*
X97300000Y-35300000D02*
X91460000Y-35300000D01*
X91460000Y-35300000D02*
X90700000Y-34540000D01*
X90700000Y-29460000D02*
X91460000Y-28700000D01*
X91460000Y-28700000D02*
X97300000Y-28700000D01*
G04 #@! TO.C,C7*
X71460000Y-28700000D02*
X77300000Y-28700000D01*
X70700000Y-29460000D02*
X71460000Y-28700000D01*
X71460000Y-35300000D02*
X70700000Y-34540000D01*
X77300000Y-35300000D02*
X71460000Y-35300000D01*
X70700000Y-29460000D02*
X70700000Y-30880000D01*
X70700000Y-34540000D02*
X70700000Y-33120000D01*
X77300000Y-28700000D02*
X77300000Y-30880000D01*
X77300000Y-35300000D02*
X77300000Y-33120000D01*
G04 #@! TO.C,C8*
X47540000Y-35300000D02*
X41700000Y-35300000D01*
X48300000Y-34540000D02*
X47540000Y-35300000D01*
X47540000Y-28700000D02*
X48300000Y-29460000D01*
X41700000Y-28700000D02*
X47540000Y-28700000D01*
X48300000Y-34540000D02*
X48300000Y-33120000D01*
X48300000Y-29460000D02*
X48300000Y-30880000D01*
X41700000Y-35300000D02*
X41700000Y-33120000D01*
X41700000Y-28700000D02*
X41700000Y-30880000D01*
G04 #@! TO.C,C9*
X21700000Y-28700000D02*
X21700000Y-30880000D01*
X21700000Y-35300000D02*
X21700000Y-33120000D01*
X28300000Y-29460000D02*
X28300000Y-30880000D01*
X28300000Y-34540000D02*
X28300000Y-33120000D01*
X21700000Y-28700000D02*
X27540000Y-28700000D01*
X27540000Y-28700000D02*
X28300000Y-29460000D01*
X28300000Y-34540000D02*
X27540000Y-35300000D01*
X27540000Y-35300000D02*
X21700000Y-35300000D01*
G04 #@! TO.C,J1*
X97850000Y-24450000D02*
X97850000Y-15250000D01*
X90150000Y-24450000D02*
X97850000Y-24450000D01*
X90150000Y-15250000D02*
X90150000Y-24450000D01*
X97850000Y-15250000D02*
X90150000Y-15250000D01*
X97850000Y-16250000D02*
X90150000Y-16250000D01*
G04 #@! TO.C,J2*
X72170000Y-24830000D02*
X72170000Y-23500000D01*
X73500000Y-24830000D02*
X72170000Y-24830000D01*
X74770000Y-24830000D02*
X74770000Y-22170000D01*
X74770000Y-22170000D02*
X77370000Y-22170000D01*
X74770000Y-24830000D02*
X77370000Y-24830000D01*
X77370000Y-24830000D02*
X77370000Y-22170000D01*
G04 #@! TO.C,J3*
X82060000Y-41350000D02*
X82060000Y-49950000D01*
X97050000Y-41150000D02*
X97050000Y-49950000D01*
X97050000Y-49950000D02*
X82060000Y-49950000D01*
X97050000Y-35860000D02*
X82060000Y-35860000D01*
X82060000Y-35860000D02*
X82060000Y-37980000D01*
X97050000Y-35860000D02*
X97050000Y-38190000D01*
G04 #@! TO.C,J4*
X77050000Y-35860000D02*
X77050000Y-38190000D01*
X62060000Y-35860000D02*
X62060000Y-37980000D01*
X77050000Y-35860000D02*
X62060000Y-35860000D01*
X77050000Y-49950000D02*
X62060000Y-49950000D01*
X77050000Y-41150000D02*
X77050000Y-49950000D01*
X62060000Y-41350000D02*
X62060000Y-49950000D01*
G04 #@! TO.C,J5*
X57050000Y-35860000D02*
X57050000Y-38190000D01*
X42060000Y-35860000D02*
X42060000Y-37980000D01*
X57050000Y-35860000D02*
X42060000Y-35860000D01*
X57050000Y-49950000D02*
X42060000Y-49950000D01*
X57050000Y-41150000D02*
X57050000Y-49950000D01*
X42060000Y-41350000D02*
X42060000Y-49950000D01*
G04 #@! TO.C,J6*
X22060000Y-41350000D02*
X22060000Y-49950000D01*
X37050000Y-41150000D02*
X37050000Y-49950000D01*
X37050000Y-49950000D02*
X22060000Y-49950000D01*
X37050000Y-35860000D02*
X22060000Y-35860000D01*
X22060000Y-35860000D02*
X22060000Y-37980000D01*
X37050000Y-35860000D02*
X37050000Y-38190000D01*
G04 #@! TO.C,JP1*
X95500000Y-25325000D02*
X97500000Y-25325000D01*
X95500000Y-28125000D02*
X95500000Y-25325000D01*
X97500000Y-28125000D02*
X95500000Y-28125000D01*
X97500000Y-25325000D02*
X97500000Y-28125000D01*
D13*
G04 #@! TO.C,U1*
X54950000Y-26075000D02*
X54950000Y-27450000D01*
X65075000Y-26075000D02*
X65075000Y-21925000D01*
X54925000Y-26075000D02*
X54925000Y-21925000D01*
X65075000Y-26075000D02*
X64970000Y-26075000D01*
X65075000Y-21925000D02*
X64970000Y-21925000D01*
X54925000Y-21925000D02*
X55030000Y-21925000D01*
X54925000Y-26075000D02*
X54950000Y-26075000D01*
D12*
G04 #@! TO.C,Y1*
X47300000Y-19250000D02*
X47300000Y-23750000D01*
X47300000Y-23750000D02*
X52700000Y-23750000D01*
G04 #@! TO.C,C1*
D13*
X45045333Y-24868142D02*
X44997714Y-24915761D01*
X44854857Y-24963380D01*
X44759619Y-24963380D01*
X44616761Y-24915761D01*
X44521523Y-24820523D01*
X44473904Y-24725285D01*
X44426285Y-24534809D01*
X44426285Y-24391952D01*
X44473904Y-24201476D01*
X44521523Y-24106238D01*
X44616761Y-24011000D01*
X44759619Y-23963380D01*
X44854857Y-23963380D01*
X44997714Y-24011000D01*
X45045333Y-24058619D01*
X45997714Y-24963380D02*
X45426285Y-24963380D01*
X45712000Y-24963380D02*
X45712000Y-23963380D01*
X45616761Y-24106238D01*
X45521523Y-24201476D01*
X45426285Y-24249095D01*
G04 #@! TO.C,C2*
X57053571Y-18641666D02*
X57094047Y-18682142D01*
X57134523Y-18803571D01*
X57134523Y-18884523D01*
X57094047Y-19005952D01*
X57013095Y-19086904D01*
X56932142Y-19127380D01*
X56770238Y-19167857D01*
X56648809Y-19167857D01*
X56486904Y-19127380D01*
X56405952Y-19086904D01*
X56325000Y-19005952D01*
X56284523Y-18884523D01*
X56284523Y-18803571D01*
X56325000Y-18682142D01*
X56365476Y-18641666D01*
X56365476Y-18317857D02*
X56325000Y-18277380D01*
X56284523Y-18196428D01*
X56284523Y-17994047D01*
X56325000Y-17913095D01*
X56365476Y-17872619D01*
X56446428Y-17832142D01*
X56527380Y-17832142D01*
X56648809Y-17872619D01*
X57134523Y-18358333D01*
X57134523Y-17832142D01*
G04 #@! TO.C,C3*
X61834333Y-16432571D02*
X61793857Y-16473047D01*
X61672428Y-16513523D01*
X61591476Y-16513523D01*
X61470047Y-16473047D01*
X61389095Y-16392095D01*
X61348619Y-16311142D01*
X61308142Y-16149238D01*
X61308142Y-16027809D01*
X61348619Y-15865904D01*
X61389095Y-15784952D01*
X61470047Y-15704000D01*
X61591476Y-15663523D01*
X61672428Y-15663523D01*
X61793857Y-15704000D01*
X61834333Y-15744476D01*
X62117666Y-15663523D02*
X62643857Y-15663523D01*
X62360523Y-15987333D01*
X62481952Y-15987333D01*
X62562904Y-16027809D01*
X62603380Y-16068285D01*
X62643857Y-16149238D01*
X62643857Y-16351619D01*
X62603380Y-16432571D01*
X62562904Y-16473047D01*
X62481952Y-16513523D01*
X62239095Y-16513523D01*
X62158142Y-16473047D01*
X62117666Y-16432571D01*
G04 #@! TO.C,C4*
X59421333Y-16432571D02*
X59380857Y-16473047D01*
X59259428Y-16513523D01*
X59178476Y-16513523D01*
X59057047Y-16473047D01*
X58976095Y-16392095D01*
X58935619Y-16311142D01*
X58895142Y-16149238D01*
X58895142Y-16027809D01*
X58935619Y-15865904D01*
X58976095Y-15784952D01*
X59057047Y-15704000D01*
X59178476Y-15663523D01*
X59259428Y-15663523D01*
X59380857Y-15704000D01*
X59421333Y-15744476D01*
X60149904Y-15946857D02*
X60149904Y-16513523D01*
X59947523Y-15623047D02*
X59745142Y-16230190D01*
X60271333Y-16230190D01*
G04 #@! TO.C,C5*
X47585333Y-18899142D02*
X47537714Y-18946761D01*
X47394857Y-18994380D01*
X47299619Y-18994380D01*
X47156761Y-18946761D01*
X47061523Y-18851523D01*
X47013904Y-18756285D01*
X46966285Y-18565809D01*
X46966285Y-18422952D01*
X47013904Y-18232476D01*
X47061523Y-18137238D01*
X47156761Y-18042000D01*
X47299619Y-17994380D01*
X47394857Y-17994380D01*
X47537714Y-18042000D01*
X47585333Y-18089619D01*
X48490095Y-17994380D02*
X48013904Y-17994380D01*
X47966285Y-18470571D01*
X48013904Y-18422952D01*
X48109142Y-18375333D01*
X48347238Y-18375333D01*
X48442476Y-18422952D01*
X48490095Y-18470571D01*
X48537714Y-18565809D01*
X48537714Y-18803904D01*
X48490095Y-18899142D01*
X48442476Y-18946761D01*
X48347238Y-18994380D01*
X48109142Y-18994380D01*
X48013904Y-18946761D01*
X47966285Y-18899142D01*
G04 #@! TO.C,C6*
X93833333Y-27797142D02*
X93785714Y-27844761D01*
X93642857Y-27892380D01*
X93547619Y-27892380D01*
X93404761Y-27844761D01*
X93309523Y-27749523D01*
X93261904Y-27654285D01*
X93214285Y-27463809D01*
X93214285Y-27320952D01*
X93261904Y-27130476D01*
X93309523Y-27035238D01*
X93404761Y-26940000D01*
X93547619Y-26892380D01*
X93642857Y-26892380D01*
X93785714Y-26940000D01*
X93833333Y-26987619D01*
X94690476Y-26892380D02*
X94500000Y-26892380D01*
X94404761Y-26940000D01*
X94357142Y-26987619D01*
X94261904Y-27130476D01*
X94214285Y-27320952D01*
X94214285Y-27701904D01*
X94261904Y-27797142D01*
X94309523Y-27844761D01*
X94404761Y-27892380D01*
X94595238Y-27892380D01*
X94690476Y-27844761D01*
X94738095Y-27797142D01*
X94785714Y-27701904D01*
X94785714Y-27463809D01*
X94738095Y-27368571D01*
X94690476Y-27320952D01*
X94595238Y-27273333D01*
X94404761Y-27273333D01*
X94309523Y-27320952D01*
X94261904Y-27368571D01*
X94214285Y-27463809D01*
X89339047Y-35081428D02*
X90100952Y-35081428D01*
X89720000Y-35462380D02*
X89720000Y-34700476D01*
G04 #@! TO.C,C7*
X73833333Y-27797142D02*
X73785714Y-27844761D01*
X73642857Y-27892380D01*
X73547619Y-27892380D01*
X73404761Y-27844761D01*
X73309523Y-27749523D01*
X73261904Y-27654285D01*
X73214285Y-27463809D01*
X73214285Y-27320952D01*
X73261904Y-27130476D01*
X73309523Y-27035238D01*
X73404761Y-26940000D01*
X73547619Y-26892380D01*
X73642857Y-26892380D01*
X73785714Y-26940000D01*
X73833333Y-26987619D01*
X74166666Y-26892380D02*
X74833333Y-26892380D01*
X74404761Y-27892380D01*
X69339047Y-35081428D02*
X70100952Y-35081428D01*
X69720000Y-35462380D02*
X69720000Y-34700476D01*
G04 #@! TO.C,C8*
X44833333Y-27797142D02*
X44785714Y-27844761D01*
X44642857Y-27892380D01*
X44547619Y-27892380D01*
X44404761Y-27844761D01*
X44309523Y-27749523D01*
X44261904Y-27654285D01*
X44214285Y-27463809D01*
X44214285Y-27320952D01*
X44261904Y-27130476D01*
X44309523Y-27035238D01*
X44404761Y-26940000D01*
X44547619Y-26892380D01*
X44642857Y-26892380D01*
X44785714Y-26940000D01*
X44833333Y-26987619D01*
X45404761Y-27320952D02*
X45309523Y-27273333D01*
X45261904Y-27225714D01*
X45214285Y-27130476D01*
X45214285Y-27082857D01*
X45261904Y-26987619D01*
X45309523Y-26940000D01*
X45404761Y-26892380D01*
X45595238Y-26892380D01*
X45690476Y-26940000D01*
X45738095Y-26987619D01*
X45785714Y-27082857D01*
X45785714Y-27130476D01*
X45738095Y-27225714D01*
X45690476Y-27273333D01*
X45595238Y-27320952D01*
X45404761Y-27320952D01*
X45309523Y-27368571D01*
X45261904Y-27416190D01*
X45214285Y-27511428D01*
X45214285Y-27701904D01*
X45261904Y-27797142D01*
X45309523Y-27844761D01*
X45404761Y-27892380D01*
X45595238Y-27892380D01*
X45690476Y-27844761D01*
X45738095Y-27797142D01*
X45785714Y-27701904D01*
X45785714Y-27511428D01*
X45738095Y-27416190D01*
X45690476Y-27368571D01*
X45595238Y-27320952D01*
X48899047Y-29061428D02*
X49660952Y-29061428D01*
X49280000Y-29442380D02*
X49280000Y-28680476D01*
G04 #@! TO.C,C9*
X24833333Y-27797142D02*
X24785714Y-27844761D01*
X24642857Y-27892380D01*
X24547619Y-27892380D01*
X24404761Y-27844761D01*
X24309523Y-27749523D01*
X24261904Y-27654285D01*
X24214285Y-27463809D01*
X24214285Y-27320952D01*
X24261904Y-27130476D01*
X24309523Y-27035238D01*
X24404761Y-26940000D01*
X24547619Y-26892380D01*
X24642857Y-26892380D01*
X24785714Y-26940000D01*
X24833333Y-26987619D01*
X25309523Y-27892380D02*
X25500000Y-27892380D01*
X25595238Y-27844761D01*
X25642857Y-27797142D01*
X25738095Y-27654285D01*
X25785714Y-27463809D01*
X25785714Y-27082857D01*
X25738095Y-26987619D01*
X25690476Y-26940000D01*
X25595238Y-26892380D01*
X25404761Y-26892380D01*
X25309523Y-26940000D01*
X25261904Y-26987619D01*
X25214285Y-27082857D01*
X25214285Y-27320952D01*
X25261904Y-27416190D01*
X25309523Y-27463809D01*
X25404761Y-27511428D01*
X25595238Y-27511428D01*
X25690476Y-27463809D01*
X25738095Y-27416190D01*
X25785714Y-27320952D01*
X28899047Y-29061428D02*
X29660952Y-29061428D01*
X29280000Y-29442380D02*
X29280000Y-28680476D01*
G04 #@! TO.C,J1*
X86552380Y-20183333D02*
X87266666Y-20183333D01*
X87409523Y-20230952D01*
X87504761Y-20326190D01*
X87552380Y-20469047D01*
X87552380Y-20564285D01*
X87552380Y-19183333D02*
X87552380Y-19754761D01*
X87552380Y-19469047D02*
X86552380Y-19469047D01*
X86695238Y-19564285D01*
X86790476Y-19659523D01*
X86838095Y-19754761D01*
G04 #@! TO.C,J2*
X70622380Y-23833333D02*
X71336666Y-23833333D01*
X71479523Y-23880952D01*
X71574761Y-23976190D01*
X71622380Y-24119047D01*
X71622380Y-24214285D01*
X70717619Y-23404761D02*
X70670000Y-23357142D01*
X70622380Y-23261904D01*
X70622380Y-23023809D01*
X70670000Y-22928571D01*
X70717619Y-22880952D01*
X70812857Y-22833333D01*
X70908095Y-22833333D01*
X71050952Y-22880952D01*
X71622380Y-23452380D01*
X71622380Y-22833333D01*
G04 #@! TO.C,J3*
X85666666Y-34102380D02*
X85666666Y-34816666D01*
X85619047Y-34959523D01*
X85523809Y-35054761D01*
X85380952Y-35102380D01*
X85285714Y-35102380D01*
X86047619Y-34102380D02*
X86666666Y-34102380D01*
X86333333Y-34483333D01*
X86476190Y-34483333D01*
X86571428Y-34530952D01*
X86619047Y-34578571D01*
X86666666Y-34673809D01*
X86666666Y-34911904D01*
X86619047Y-35007142D01*
X86571428Y-35054761D01*
X86476190Y-35102380D01*
X86190476Y-35102380D01*
X86095238Y-35054761D01*
X86047619Y-35007142D01*
G04 #@! TO.C,J4*
X65666666Y-34102380D02*
X65666666Y-34816666D01*
X65619047Y-34959523D01*
X65523809Y-35054761D01*
X65380952Y-35102380D01*
X65285714Y-35102380D01*
X66571428Y-34435714D02*
X66571428Y-35102380D01*
X66333333Y-34054761D02*
X66095238Y-34769047D01*
X66714285Y-34769047D01*
G04 #@! TO.C,J5*
X52813666Y-34102380D02*
X52813666Y-34816666D01*
X52766047Y-34959523D01*
X52670809Y-35054761D01*
X52527952Y-35102380D01*
X52432714Y-35102380D01*
X53766047Y-34102380D02*
X53289857Y-34102380D01*
X53242238Y-34578571D01*
X53289857Y-34530952D01*
X53385095Y-34483333D01*
X53623190Y-34483333D01*
X53718428Y-34530952D01*
X53766047Y-34578571D01*
X53813666Y-34673809D01*
X53813666Y-34911904D01*
X53766047Y-35007142D01*
X53718428Y-35054761D01*
X53623190Y-35102380D01*
X53385095Y-35102380D01*
X53289857Y-35054761D01*
X53242238Y-35007142D01*
G04 #@! TO.C,J6*
X32813666Y-34102380D02*
X32813666Y-34816666D01*
X32766047Y-34959523D01*
X32670809Y-35054761D01*
X32527952Y-35102380D01*
X32432714Y-35102380D01*
X33718428Y-34102380D02*
X33527952Y-34102380D01*
X33432714Y-34150000D01*
X33385095Y-34197619D01*
X33289857Y-34340476D01*
X33242238Y-34530952D01*
X33242238Y-34911904D01*
X33289857Y-35007142D01*
X33337476Y-35054761D01*
X33432714Y-35102380D01*
X33623190Y-35102380D01*
X33718428Y-35054761D01*
X33766047Y-35007142D01*
X33813666Y-34911904D01*
X33813666Y-34673809D01*
X33766047Y-34578571D01*
X33718428Y-34530952D01*
X33623190Y-34483333D01*
X33432714Y-34483333D01*
X33337476Y-34530952D01*
X33289857Y-34578571D01*
X33242238Y-34673809D01*
G04 #@! TO.C,JP1*
X97752380Y-27558333D02*
X98466666Y-27558333D01*
X98609523Y-27605952D01*
X98704761Y-27701190D01*
X98752380Y-27844047D01*
X98752380Y-27939285D01*
X98752380Y-27082142D02*
X97752380Y-27082142D01*
X97752380Y-26701190D01*
X97800000Y-26605952D01*
X97847619Y-26558333D01*
X97942857Y-26510714D01*
X98085714Y-26510714D01*
X98180952Y-26558333D01*
X98228571Y-26605952D01*
X98276190Y-26701190D01*
X98276190Y-27082142D01*
X98752380Y-25558333D02*
X98752380Y-26129761D01*
X98752380Y-25844047D02*
X97752380Y-25844047D01*
X97895238Y-25939285D01*
X97990476Y-26034523D01*
X98038095Y-26129761D01*
G04 #@! TO.C,U1*
X53452380Y-24761904D02*
X54261904Y-24761904D01*
X54357142Y-24714285D01*
X54404761Y-24666666D01*
X54452380Y-24571428D01*
X54452380Y-24380952D01*
X54404761Y-24285714D01*
X54357142Y-24238095D01*
X54261904Y-24190476D01*
X53452380Y-24190476D01*
X54452380Y-23190476D02*
X54452380Y-23761904D01*
X54452380Y-23476190D02*
X53452380Y-23476190D01*
X53595238Y-23571428D01*
X53690476Y-23666666D01*
X53738095Y-23761904D01*
G04 #@! TO.C,Y1*
X45624809Y-21439190D02*
X45624809Y-21915380D01*
X45291476Y-20915380D02*
X45624809Y-21439190D01*
X45958142Y-20915380D01*
X46815285Y-21915380D02*
X46243857Y-21915380D01*
X46529571Y-21915380D02*
X46529571Y-20915380D01*
X46434333Y-21058238D01*
X46339095Y-21153476D01*
X46243857Y-21201095D01*
G04 #@! TD*
M02*
