G04 #@! TF.GenerationSoftware,KiCad,Pcbnew,(5.0.1-3-g963ef8bb5)*
G04 #@! TF.CreationDate,2018-11-25T15:23:06-05:00*
G04 #@! TF.ProjectId,usb-hub,7573622D6875622E6B696361645F7063,rev?*
G04 #@! TF.SameCoordinates,Original*
G04 #@! TF.FileFunction,Copper,L2,Bot,Signal*
G04 #@! TF.FilePolarity,Positive*
%FSLAX46Y46*%
G04 Gerber Fmt 4.6, Leading zero omitted, Abs format (unit mm)*
G04 Created by KiCad (PCBNEW (5.0.1-3-g963ef8bb5)) date Sunday, November 25, 2018 at 03:23:06 PM*
%MOMM*%
%LPD*%
G01*
G04 APERTURE LIST*
G04 #@! TA.AperFunction,ComponentPad*
%ADD10C,2.000000*%
G04 #@! TD*
G04 #@! TA.AperFunction,ComponentPad*
%ADD11O,1.700000X1.700000*%
G04 #@! TD*
G04 #@! TA.AperFunction,ComponentPad*
%ADD12R,1.700000X1.700000*%
G04 #@! TD*
G04 #@! TA.AperFunction,ComponentPad*
%ADD13C,3.000000*%
G04 #@! TD*
G04 #@! TA.AperFunction,ComponentPad*
%ADD14C,1.500000*%
G04 #@! TD*
G04 #@! TA.AperFunction,ViaPad*
%ADD15C,0.800000*%
G04 #@! TD*
G04 #@! TA.AperFunction,Conductor*
%ADD16C,0.254000*%
G04 #@! TD*
G04 APERTURE END LIST*
D10*
G04 #@! TO.P,REF\002A\002A,1*
G04 #@! TO.N,N/C*
X86000000Y-17000000D03*
G04 #@! TD*
G04 #@! TO.P,REF\002A\002A,1*
G04 #@! TO.N,N/C*
X83000000Y-33000000D03*
G04 #@! TD*
G04 #@! TO.P,REF\002A\002A,1*
G04 #@! TO.N,N/C*
X22000000Y-27000000D03*
G04 #@! TD*
D11*
G04 #@! TO.P,J2,2*
G04 #@! TO.N,GND*
X76040000Y-23500000D03*
D12*
G04 #@! TO.P,J2,1*
G04 #@! TO.N,+5V*
X73500000Y-23500000D03*
G04 #@! TD*
D13*
G04 #@! TO.P,J3,5*
G04 #@! TO.N,GND*
X82440000Y-39670000D03*
X96160000Y-39670000D03*
D14*
G04 #@! TO.P,J3,1*
G04 #@! TO.N,+5V*
X86000000Y-37000000D03*
G04 #@! TO.P,J3,2*
G04 #@! TO.N,D1_N*
X88540000Y-37000000D03*
G04 #@! TO.P,J3,3*
G04 #@! TO.N,D1_P*
X90570000Y-37000000D03*
G04 #@! TO.P,J3,4*
G04 #@! TO.N,GND*
X93110000Y-37000000D03*
G04 #@! TD*
G04 #@! TO.P,J4,4*
G04 #@! TO.N,GND*
X73110000Y-37000000D03*
G04 #@! TO.P,J4,3*
G04 #@! TO.N,D2_P*
X70570000Y-37000000D03*
G04 #@! TO.P,J4,2*
G04 #@! TO.N,D2_N*
X68540000Y-37000000D03*
G04 #@! TO.P,J4,1*
G04 #@! TO.N,+5V*
X66000000Y-37000000D03*
D13*
G04 #@! TO.P,J4,5*
G04 #@! TO.N,GND*
X76160000Y-39670000D03*
X62440000Y-39670000D03*
G04 #@! TD*
D14*
G04 #@! TO.P,J5,4*
G04 #@! TO.N,GND*
X53110000Y-37000000D03*
G04 #@! TO.P,J5,3*
G04 #@! TO.N,D3_P*
X50570000Y-37000000D03*
G04 #@! TO.P,J5,2*
G04 #@! TO.N,D3_N*
X48540000Y-37000000D03*
G04 #@! TO.P,J5,1*
G04 #@! TO.N,+5V*
X46000000Y-37000000D03*
D13*
G04 #@! TO.P,J5,5*
G04 #@! TO.N,GND*
X56160000Y-39670000D03*
X42440000Y-39670000D03*
G04 #@! TD*
G04 #@! TO.P,J6,5*
G04 #@! TO.N,GND*
X22440000Y-39670000D03*
X36160000Y-39670000D03*
D14*
G04 #@! TO.P,J6,1*
G04 #@! TO.N,+5V*
X26000000Y-37000000D03*
G04 #@! TO.P,J6,2*
G04 #@! TO.N,D4_N*
X28540000Y-37000000D03*
G04 #@! TO.P,J6,3*
G04 #@! TO.N,D4_P*
X30570000Y-37000000D03*
G04 #@! TO.P,J6,4*
G04 #@! TO.N,GND*
X33110000Y-37000000D03*
G04 #@! TD*
D10*
G04 #@! TO.P,REF\002A\002A,1*
G04 #@! TO.N,N/C*
X22000000Y-17000000D03*
G04 #@! TD*
D15*
G04 #@! TO.N,GND*
X39500000Y-33000000D03*
X79500000Y-32000000D03*
X98000000Y-30000000D03*
X87000000Y-21500000D03*
X64000000Y-17000000D03*
G04 #@! TD*
D16*
G04 #@! TO.N,GND*
G36*
X84613914Y-16073847D02*
X84365000Y-16674778D01*
X84365000Y-17325222D01*
X84613914Y-17926153D01*
X85073847Y-18386086D01*
X85674778Y-18635000D01*
X86325222Y-18635000D01*
X86926153Y-18386086D01*
X87386086Y-17926153D01*
X87635000Y-17325222D01*
X87635000Y-16674778D01*
X87386086Y-16073847D01*
X87022239Y-15710000D01*
X99290000Y-15710000D01*
X99290001Y-49290000D01*
X20710000Y-49290000D01*
X20710000Y-41183970D01*
X21105635Y-41183970D01*
X21265418Y-41502739D01*
X22056187Y-41812723D01*
X22905387Y-41796497D01*
X23614582Y-41502739D01*
X23774365Y-41183970D01*
X34825635Y-41183970D01*
X34985418Y-41502739D01*
X35776187Y-41812723D01*
X36625387Y-41796497D01*
X37334582Y-41502739D01*
X37494365Y-41183970D01*
X41105635Y-41183970D01*
X41265418Y-41502739D01*
X42056187Y-41812723D01*
X42905387Y-41796497D01*
X43614582Y-41502739D01*
X43774365Y-41183970D01*
X54825635Y-41183970D01*
X54985418Y-41502739D01*
X55776187Y-41812723D01*
X56625387Y-41796497D01*
X57334582Y-41502739D01*
X57494365Y-41183970D01*
X61105635Y-41183970D01*
X61265418Y-41502739D01*
X62056187Y-41812723D01*
X62905387Y-41796497D01*
X63614582Y-41502739D01*
X63774365Y-41183970D01*
X74825635Y-41183970D01*
X74985418Y-41502739D01*
X75776187Y-41812723D01*
X76625387Y-41796497D01*
X77334582Y-41502739D01*
X77494365Y-41183970D01*
X81105635Y-41183970D01*
X81265418Y-41502739D01*
X82056187Y-41812723D01*
X82905387Y-41796497D01*
X83614582Y-41502739D01*
X83774365Y-41183970D01*
X94825635Y-41183970D01*
X94985418Y-41502739D01*
X95776187Y-41812723D01*
X96625387Y-41796497D01*
X97334582Y-41502739D01*
X97494365Y-41183970D01*
X96160000Y-39849605D01*
X94825635Y-41183970D01*
X83774365Y-41183970D01*
X82440000Y-39849605D01*
X81105635Y-41183970D01*
X77494365Y-41183970D01*
X76160000Y-39849605D01*
X74825635Y-41183970D01*
X63774365Y-41183970D01*
X62440000Y-39849605D01*
X61105635Y-41183970D01*
X57494365Y-41183970D01*
X56160000Y-39849605D01*
X54825635Y-41183970D01*
X43774365Y-41183970D01*
X42440000Y-39849605D01*
X41105635Y-41183970D01*
X37494365Y-41183970D01*
X36160000Y-39849605D01*
X34825635Y-41183970D01*
X23774365Y-41183970D01*
X22440000Y-39849605D01*
X21105635Y-41183970D01*
X20710000Y-41183970D01*
X20710000Y-40896080D01*
X20926030Y-41004365D01*
X22260395Y-39670000D01*
X22619605Y-39670000D01*
X23953970Y-41004365D01*
X24272739Y-40844582D01*
X24582723Y-40053813D01*
X24568056Y-39286187D01*
X34017277Y-39286187D01*
X34033503Y-40135387D01*
X34327261Y-40844582D01*
X34646030Y-41004365D01*
X35980395Y-39670000D01*
X36339605Y-39670000D01*
X37673970Y-41004365D01*
X37992739Y-40844582D01*
X38302723Y-40053813D01*
X38288056Y-39286187D01*
X40297277Y-39286187D01*
X40313503Y-40135387D01*
X40607261Y-40844582D01*
X40926030Y-41004365D01*
X42260395Y-39670000D01*
X42619605Y-39670000D01*
X43953970Y-41004365D01*
X44272739Y-40844582D01*
X44582723Y-40053813D01*
X44568056Y-39286187D01*
X54017277Y-39286187D01*
X54033503Y-40135387D01*
X54327261Y-40844582D01*
X54646030Y-41004365D01*
X55980395Y-39670000D01*
X56339605Y-39670000D01*
X57673970Y-41004365D01*
X57992739Y-40844582D01*
X58302723Y-40053813D01*
X58288056Y-39286187D01*
X60297277Y-39286187D01*
X60313503Y-40135387D01*
X60607261Y-40844582D01*
X60926030Y-41004365D01*
X62260395Y-39670000D01*
X62619605Y-39670000D01*
X63953970Y-41004365D01*
X64272739Y-40844582D01*
X64582723Y-40053813D01*
X64568056Y-39286187D01*
X74017277Y-39286187D01*
X74033503Y-40135387D01*
X74327261Y-40844582D01*
X74646030Y-41004365D01*
X75980395Y-39670000D01*
X76339605Y-39670000D01*
X77673970Y-41004365D01*
X77992739Y-40844582D01*
X78302723Y-40053813D01*
X78288056Y-39286187D01*
X80297277Y-39286187D01*
X80313503Y-40135387D01*
X80607261Y-40844582D01*
X80926030Y-41004365D01*
X82260395Y-39670000D01*
X82619605Y-39670000D01*
X83953970Y-41004365D01*
X84272739Y-40844582D01*
X84582723Y-40053813D01*
X84568056Y-39286187D01*
X94017277Y-39286187D01*
X94033503Y-40135387D01*
X94327261Y-40844582D01*
X94646030Y-41004365D01*
X95980395Y-39670000D01*
X96339605Y-39670000D01*
X97673970Y-41004365D01*
X97992739Y-40844582D01*
X98302723Y-40053813D01*
X98286497Y-39204613D01*
X97992739Y-38495418D01*
X97673970Y-38335635D01*
X96339605Y-39670000D01*
X95980395Y-39670000D01*
X94646030Y-38335635D01*
X94327261Y-38495418D01*
X94017277Y-39286187D01*
X84568056Y-39286187D01*
X84566497Y-39204613D01*
X84272739Y-38495418D01*
X83953970Y-38335635D01*
X82619605Y-39670000D01*
X82260395Y-39670000D01*
X80926030Y-38335635D01*
X80607261Y-38495418D01*
X80297277Y-39286187D01*
X78288056Y-39286187D01*
X78286497Y-39204613D01*
X77992739Y-38495418D01*
X77673970Y-38335635D01*
X76339605Y-39670000D01*
X75980395Y-39670000D01*
X74646030Y-38335635D01*
X74327261Y-38495418D01*
X74017277Y-39286187D01*
X64568056Y-39286187D01*
X64566497Y-39204613D01*
X64272739Y-38495418D01*
X63953970Y-38335635D01*
X62619605Y-39670000D01*
X62260395Y-39670000D01*
X60926030Y-38335635D01*
X60607261Y-38495418D01*
X60297277Y-39286187D01*
X58288056Y-39286187D01*
X58286497Y-39204613D01*
X57992739Y-38495418D01*
X57673970Y-38335635D01*
X56339605Y-39670000D01*
X55980395Y-39670000D01*
X54646030Y-38335635D01*
X54327261Y-38495418D01*
X54017277Y-39286187D01*
X44568056Y-39286187D01*
X44566497Y-39204613D01*
X44272739Y-38495418D01*
X43953970Y-38335635D01*
X42619605Y-39670000D01*
X42260395Y-39670000D01*
X40926030Y-38335635D01*
X40607261Y-38495418D01*
X40297277Y-39286187D01*
X38288056Y-39286187D01*
X38286497Y-39204613D01*
X37992739Y-38495418D01*
X37673970Y-38335635D01*
X36339605Y-39670000D01*
X35980395Y-39670000D01*
X34646030Y-38335635D01*
X34327261Y-38495418D01*
X34017277Y-39286187D01*
X24568056Y-39286187D01*
X24566497Y-39204613D01*
X24272739Y-38495418D01*
X23953970Y-38335635D01*
X22619605Y-39670000D01*
X22260395Y-39670000D01*
X20926030Y-38335635D01*
X20710000Y-38443920D01*
X20710000Y-38156030D01*
X21105635Y-38156030D01*
X22440000Y-39490395D01*
X23774365Y-38156030D01*
X23614582Y-37837261D01*
X22823813Y-37527277D01*
X21974613Y-37543503D01*
X21265418Y-37837261D01*
X21105635Y-38156030D01*
X20710000Y-38156030D01*
X20710000Y-36724506D01*
X24615000Y-36724506D01*
X24615000Y-37275494D01*
X24825853Y-37784540D01*
X25215460Y-38174147D01*
X25724506Y-38385000D01*
X26275494Y-38385000D01*
X26784540Y-38174147D01*
X27174147Y-37784540D01*
X27270000Y-37553130D01*
X27365853Y-37784540D01*
X27755460Y-38174147D01*
X28264506Y-38385000D01*
X28815494Y-38385000D01*
X29324540Y-38174147D01*
X29555000Y-37943687D01*
X29785460Y-38174147D01*
X30294506Y-38385000D01*
X30845494Y-38385000D01*
X31354540Y-38174147D01*
X31557170Y-37971517D01*
X32318088Y-37971517D01*
X32386077Y-38212460D01*
X32905171Y-38397201D01*
X33455448Y-38369230D01*
X33833923Y-38212460D01*
X33849846Y-38156030D01*
X34825635Y-38156030D01*
X36160000Y-39490395D01*
X37494365Y-38156030D01*
X41105635Y-38156030D01*
X42440000Y-39490395D01*
X43774365Y-38156030D01*
X43614582Y-37837261D01*
X42823813Y-37527277D01*
X41974613Y-37543503D01*
X41265418Y-37837261D01*
X41105635Y-38156030D01*
X37494365Y-38156030D01*
X37334582Y-37837261D01*
X36543813Y-37527277D01*
X35694613Y-37543503D01*
X34985418Y-37837261D01*
X34825635Y-38156030D01*
X33849846Y-38156030D01*
X33901912Y-37971517D01*
X33110000Y-37179605D01*
X32318088Y-37971517D01*
X31557170Y-37971517D01*
X31744147Y-37784540D01*
X31833397Y-37569070D01*
X31897540Y-37723923D01*
X32138483Y-37791912D01*
X32930395Y-37000000D01*
X33289605Y-37000000D01*
X34081517Y-37791912D01*
X34322460Y-37723923D01*
X34507201Y-37204829D01*
X34482786Y-36724506D01*
X44615000Y-36724506D01*
X44615000Y-37275494D01*
X44825853Y-37784540D01*
X45215460Y-38174147D01*
X45724506Y-38385000D01*
X46275494Y-38385000D01*
X46784540Y-38174147D01*
X47174147Y-37784540D01*
X47270000Y-37553130D01*
X47365853Y-37784540D01*
X47755460Y-38174147D01*
X48264506Y-38385000D01*
X48815494Y-38385000D01*
X49324540Y-38174147D01*
X49555000Y-37943687D01*
X49785460Y-38174147D01*
X50294506Y-38385000D01*
X50845494Y-38385000D01*
X51354540Y-38174147D01*
X51557170Y-37971517D01*
X52318088Y-37971517D01*
X52386077Y-38212460D01*
X52905171Y-38397201D01*
X53455448Y-38369230D01*
X53833923Y-38212460D01*
X53849846Y-38156030D01*
X54825635Y-38156030D01*
X56160000Y-39490395D01*
X57494365Y-38156030D01*
X61105635Y-38156030D01*
X62440000Y-39490395D01*
X63774365Y-38156030D01*
X63614582Y-37837261D01*
X62823813Y-37527277D01*
X61974613Y-37543503D01*
X61265418Y-37837261D01*
X61105635Y-38156030D01*
X57494365Y-38156030D01*
X57334582Y-37837261D01*
X56543813Y-37527277D01*
X55694613Y-37543503D01*
X54985418Y-37837261D01*
X54825635Y-38156030D01*
X53849846Y-38156030D01*
X53901912Y-37971517D01*
X53110000Y-37179605D01*
X52318088Y-37971517D01*
X51557170Y-37971517D01*
X51744147Y-37784540D01*
X51833397Y-37569070D01*
X51897540Y-37723923D01*
X52138483Y-37791912D01*
X52930395Y-37000000D01*
X53289605Y-37000000D01*
X54081517Y-37791912D01*
X54322460Y-37723923D01*
X54507201Y-37204829D01*
X54482786Y-36724506D01*
X64615000Y-36724506D01*
X64615000Y-37275494D01*
X64825853Y-37784540D01*
X65215460Y-38174147D01*
X65724506Y-38385000D01*
X66275494Y-38385000D01*
X66784540Y-38174147D01*
X67174147Y-37784540D01*
X67270000Y-37553130D01*
X67365853Y-37784540D01*
X67755460Y-38174147D01*
X68264506Y-38385000D01*
X68815494Y-38385000D01*
X69324540Y-38174147D01*
X69555000Y-37943687D01*
X69785460Y-38174147D01*
X70294506Y-38385000D01*
X70845494Y-38385000D01*
X71354540Y-38174147D01*
X71557170Y-37971517D01*
X72318088Y-37971517D01*
X72386077Y-38212460D01*
X72905171Y-38397201D01*
X73455448Y-38369230D01*
X73833923Y-38212460D01*
X73849846Y-38156030D01*
X74825635Y-38156030D01*
X76160000Y-39490395D01*
X77494365Y-38156030D01*
X81105635Y-38156030D01*
X82440000Y-39490395D01*
X83774365Y-38156030D01*
X83614582Y-37837261D01*
X82823813Y-37527277D01*
X81974613Y-37543503D01*
X81265418Y-37837261D01*
X81105635Y-38156030D01*
X77494365Y-38156030D01*
X77334582Y-37837261D01*
X76543813Y-37527277D01*
X75694613Y-37543503D01*
X74985418Y-37837261D01*
X74825635Y-38156030D01*
X73849846Y-38156030D01*
X73901912Y-37971517D01*
X73110000Y-37179605D01*
X72318088Y-37971517D01*
X71557170Y-37971517D01*
X71744147Y-37784540D01*
X71833397Y-37569070D01*
X71897540Y-37723923D01*
X72138483Y-37791912D01*
X72930395Y-37000000D01*
X73289605Y-37000000D01*
X74081517Y-37791912D01*
X74322460Y-37723923D01*
X74507201Y-37204829D01*
X74482786Y-36724506D01*
X84615000Y-36724506D01*
X84615000Y-37275494D01*
X84825853Y-37784540D01*
X85215460Y-38174147D01*
X85724506Y-38385000D01*
X86275494Y-38385000D01*
X86784540Y-38174147D01*
X87174147Y-37784540D01*
X87270000Y-37553130D01*
X87365853Y-37784540D01*
X87755460Y-38174147D01*
X88264506Y-38385000D01*
X88815494Y-38385000D01*
X89324540Y-38174147D01*
X89555000Y-37943687D01*
X89785460Y-38174147D01*
X90294506Y-38385000D01*
X90845494Y-38385000D01*
X91354540Y-38174147D01*
X91557170Y-37971517D01*
X92318088Y-37971517D01*
X92386077Y-38212460D01*
X92905171Y-38397201D01*
X93455448Y-38369230D01*
X93833923Y-38212460D01*
X93849846Y-38156030D01*
X94825635Y-38156030D01*
X96160000Y-39490395D01*
X97494365Y-38156030D01*
X97334582Y-37837261D01*
X96543813Y-37527277D01*
X95694613Y-37543503D01*
X94985418Y-37837261D01*
X94825635Y-38156030D01*
X93849846Y-38156030D01*
X93901912Y-37971517D01*
X93110000Y-37179605D01*
X92318088Y-37971517D01*
X91557170Y-37971517D01*
X91744147Y-37784540D01*
X91833397Y-37569070D01*
X91897540Y-37723923D01*
X92138483Y-37791912D01*
X92930395Y-37000000D01*
X93289605Y-37000000D01*
X94081517Y-37791912D01*
X94322460Y-37723923D01*
X94507201Y-37204829D01*
X94479230Y-36654552D01*
X94322460Y-36276077D01*
X94081517Y-36208088D01*
X93289605Y-37000000D01*
X92930395Y-37000000D01*
X92138483Y-36208088D01*
X91897540Y-36276077D01*
X91838255Y-36442658D01*
X91744147Y-36215460D01*
X91557170Y-36028483D01*
X92318088Y-36028483D01*
X93110000Y-36820395D01*
X93901912Y-36028483D01*
X93833923Y-35787540D01*
X93314829Y-35602799D01*
X92764552Y-35630770D01*
X92386077Y-35787540D01*
X92318088Y-36028483D01*
X91557170Y-36028483D01*
X91354540Y-35825853D01*
X90845494Y-35615000D01*
X90294506Y-35615000D01*
X89785460Y-35825853D01*
X89555000Y-36056313D01*
X89324540Y-35825853D01*
X88815494Y-35615000D01*
X88264506Y-35615000D01*
X87755460Y-35825853D01*
X87365853Y-36215460D01*
X87270000Y-36446870D01*
X87174147Y-36215460D01*
X86784540Y-35825853D01*
X86275494Y-35615000D01*
X85724506Y-35615000D01*
X85215460Y-35825853D01*
X84825853Y-36215460D01*
X84615000Y-36724506D01*
X74482786Y-36724506D01*
X74479230Y-36654552D01*
X74322460Y-36276077D01*
X74081517Y-36208088D01*
X73289605Y-37000000D01*
X72930395Y-37000000D01*
X72138483Y-36208088D01*
X71897540Y-36276077D01*
X71838255Y-36442658D01*
X71744147Y-36215460D01*
X71557170Y-36028483D01*
X72318088Y-36028483D01*
X73110000Y-36820395D01*
X73901912Y-36028483D01*
X73833923Y-35787540D01*
X73314829Y-35602799D01*
X72764552Y-35630770D01*
X72386077Y-35787540D01*
X72318088Y-36028483D01*
X71557170Y-36028483D01*
X71354540Y-35825853D01*
X70845494Y-35615000D01*
X70294506Y-35615000D01*
X69785460Y-35825853D01*
X69555000Y-36056313D01*
X69324540Y-35825853D01*
X68815494Y-35615000D01*
X68264506Y-35615000D01*
X67755460Y-35825853D01*
X67365853Y-36215460D01*
X67270000Y-36446870D01*
X67174147Y-36215460D01*
X66784540Y-35825853D01*
X66275494Y-35615000D01*
X65724506Y-35615000D01*
X65215460Y-35825853D01*
X64825853Y-36215460D01*
X64615000Y-36724506D01*
X54482786Y-36724506D01*
X54479230Y-36654552D01*
X54322460Y-36276077D01*
X54081517Y-36208088D01*
X53289605Y-37000000D01*
X52930395Y-37000000D01*
X52138483Y-36208088D01*
X51897540Y-36276077D01*
X51838255Y-36442658D01*
X51744147Y-36215460D01*
X51557170Y-36028483D01*
X52318088Y-36028483D01*
X53110000Y-36820395D01*
X53901912Y-36028483D01*
X53833923Y-35787540D01*
X53314829Y-35602799D01*
X52764552Y-35630770D01*
X52386077Y-35787540D01*
X52318088Y-36028483D01*
X51557170Y-36028483D01*
X51354540Y-35825853D01*
X50845494Y-35615000D01*
X50294506Y-35615000D01*
X49785460Y-35825853D01*
X49555000Y-36056313D01*
X49324540Y-35825853D01*
X48815494Y-35615000D01*
X48264506Y-35615000D01*
X47755460Y-35825853D01*
X47365853Y-36215460D01*
X47270000Y-36446870D01*
X47174147Y-36215460D01*
X46784540Y-35825853D01*
X46275494Y-35615000D01*
X45724506Y-35615000D01*
X45215460Y-35825853D01*
X44825853Y-36215460D01*
X44615000Y-36724506D01*
X34482786Y-36724506D01*
X34479230Y-36654552D01*
X34322460Y-36276077D01*
X34081517Y-36208088D01*
X33289605Y-37000000D01*
X32930395Y-37000000D01*
X32138483Y-36208088D01*
X31897540Y-36276077D01*
X31838255Y-36442658D01*
X31744147Y-36215460D01*
X31557170Y-36028483D01*
X32318088Y-36028483D01*
X33110000Y-36820395D01*
X33901912Y-36028483D01*
X33833923Y-35787540D01*
X33314829Y-35602799D01*
X32764552Y-35630770D01*
X32386077Y-35787540D01*
X32318088Y-36028483D01*
X31557170Y-36028483D01*
X31354540Y-35825853D01*
X30845494Y-35615000D01*
X30294506Y-35615000D01*
X29785460Y-35825853D01*
X29555000Y-36056313D01*
X29324540Y-35825853D01*
X28815494Y-35615000D01*
X28264506Y-35615000D01*
X27755460Y-35825853D01*
X27365853Y-36215460D01*
X27270000Y-36446870D01*
X27174147Y-36215460D01*
X26784540Y-35825853D01*
X26275494Y-35615000D01*
X25724506Y-35615000D01*
X25215460Y-35825853D01*
X24825853Y-36215460D01*
X24615000Y-36724506D01*
X20710000Y-36724506D01*
X20710000Y-32674778D01*
X81365000Y-32674778D01*
X81365000Y-33325222D01*
X81613914Y-33926153D01*
X82073847Y-34386086D01*
X82674778Y-34635000D01*
X83325222Y-34635000D01*
X83926153Y-34386086D01*
X84386086Y-33926153D01*
X84635000Y-33325222D01*
X84635000Y-32674778D01*
X84386086Y-32073847D01*
X83926153Y-31613914D01*
X83325222Y-31365000D01*
X82674778Y-31365000D01*
X82073847Y-31613914D01*
X81613914Y-32073847D01*
X81365000Y-32674778D01*
X20710000Y-32674778D01*
X20710000Y-28022239D01*
X21073847Y-28386086D01*
X21674778Y-28635000D01*
X22325222Y-28635000D01*
X22926153Y-28386086D01*
X23386086Y-27926153D01*
X23635000Y-27325222D01*
X23635000Y-26674778D01*
X23386086Y-26073847D01*
X22926153Y-25613914D01*
X22325222Y-25365000D01*
X21674778Y-25365000D01*
X21073847Y-25613914D01*
X20710000Y-25977761D01*
X20710000Y-22650000D01*
X72002560Y-22650000D01*
X72002560Y-24350000D01*
X72051843Y-24597765D01*
X72192191Y-24807809D01*
X72402235Y-24948157D01*
X72650000Y-24997440D01*
X74350000Y-24997440D01*
X74597765Y-24948157D01*
X74807809Y-24807809D01*
X74948157Y-24597765D01*
X74968739Y-24494292D01*
X75273076Y-24771645D01*
X75683110Y-24941476D01*
X75913000Y-24820155D01*
X75913000Y-23627000D01*
X76167000Y-23627000D01*
X76167000Y-24820155D01*
X76396890Y-24941476D01*
X76806924Y-24771645D01*
X77235183Y-24381358D01*
X77481486Y-23856892D01*
X77360819Y-23627000D01*
X76167000Y-23627000D01*
X75913000Y-23627000D01*
X75893000Y-23627000D01*
X75893000Y-23373000D01*
X75913000Y-23373000D01*
X75913000Y-22179845D01*
X76167000Y-22179845D01*
X76167000Y-23373000D01*
X77360819Y-23373000D01*
X77481486Y-23143108D01*
X77235183Y-22618642D01*
X76806924Y-22228355D01*
X76396890Y-22058524D01*
X76167000Y-22179845D01*
X75913000Y-22179845D01*
X75683110Y-22058524D01*
X75273076Y-22228355D01*
X74968739Y-22505708D01*
X74948157Y-22402235D01*
X74807809Y-22192191D01*
X74597765Y-22051843D01*
X74350000Y-22002560D01*
X72650000Y-22002560D01*
X72402235Y-22051843D01*
X72192191Y-22192191D01*
X72051843Y-22402235D01*
X72002560Y-22650000D01*
X20710000Y-22650000D01*
X20710000Y-20484180D01*
X90715000Y-20484180D01*
X90715000Y-20915820D01*
X90880182Y-21314603D01*
X91185397Y-21619818D01*
X91584180Y-21785000D01*
X92015820Y-21785000D01*
X92414603Y-21619818D01*
X92719818Y-21314603D01*
X92885000Y-20915820D01*
X92885000Y-20484180D01*
X95115000Y-20484180D01*
X95115000Y-20915820D01*
X95280182Y-21314603D01*
X95585397Y-21619818D01*
X95984180Y-21785000D01*
X96415820Y-21785000D01*
X96814603Y-21619818D01*
X97119818Y-21314603D01*
X97285000Y-20915820D01*
X97285000Y-20484180D01*
X97119818Y-20085397D01*
X96814603Y-19780182D01*
X96415820Y-19615000D01*
X95984180Y-19615000D01*
X95585397Y-19780182D01*
X95280182Y-20085397D01*
X95115000Y-20484180D01*
X92885000Y-20484180D01*
X92719818Y-20085397D01*
X92414603Y-19780182D01*
X92015820Y-19615000D01*
X91584180Y-19615000D01*
X91185397Y-19780182D01*
X90880182Y-20085397D01*
X90715000Y-20484180D01*
X20710000Y-20484180D01*
X20710000Y-18022239D01*
X21073847Y-18386086D01*
X21674778Y-18635000D01*
X22325222Y-18635000D01*
X22926153Y-18386086D01*
X23386086Y-17926153D01*
X23635000Y-17325222D01*
X23635000Y-16674778D01*
X23386086Y-16073847D01*
X23022239Y-15710000D01*
X84977761Y-15710000D01*
X84613914Y-16073847D01*
X84613914Y-16073847D01*
G37*
X84613914Y-16073847D02*
X84365000Y-16674778D01*
X84365000Y-17325222D01*
X84613914Y-17926153D01*
X85073847Y-18386086D01*
X85674778Y-18635000D01*
X86325222Y-18635000D01*
X86926153Y-18386086D01*
X87386086Y-17926153D01*
X87635000Y-17325222D01*
X87635000Y-16674778D01*
X87386086Y-16073847D01*
X87022239Y-15710000D01*
X99290000Y-15710000D01*
X99290001Y-49290000D01*
X20710000Y-49290000D01*
X20710000Y-41183970D01*
X21105635Y-41183970D01*
X21265418Y-41502739D01*
X22056187Y-41812723D01*
X22905387Y-41796497D01*
X23614582Y-41502739D01*
X23774365Y-41183970D01*
X34825635Y-41183970D01*
X34985418Y-41502739D01*
X35776187Y-41812723D01*
X36625387Y-41796497D01*
X37334582Y-41502739D01*
X37494365Y-41183970D01*
X41105635Y-41183970D01*
X41265418Y-41502739D01*
X42056187Y-41812723D01*
X42905387Y-41796497D01*
X43614582Y-41502739D01*
X43774365Y-41183970D01*
X54825635Y-41183970D01*
X54985418Y-41502739D01*
X55776187Y-41812723D01*
X56625387Y-41796497D01*
X57334582Y-41502739D01*
X57494365Y-41183970D01*
X61105635Y-41183970D01*
X61265418Y-41502739D01*
X62056187Y-41812723D01*
X62905387Y-41796497D01*
X63614582Y-41502739D01*
X63774365Y-41183970D01*
X74825635Y-41183970D01*
X74985418Y-41502739D01*
X75776187Y-41812723D01*
X76625387Y-41796497D01*
X77334582Y-41502739D01*
X77494365Y-41183970D01*
X81105635Y-41183970D01*
X81265418Y-41502739D01*
X82056187Y-41812723D01*
X82905387Y-41796497D01*
X83614582Y-41502739D01*
X83774365Y-41183970D01*
X94825635Y-41183970D01*
X94985418Y-41502739D01*
X95776187Y-41812723D01*
X96625387Y-41796497D01*
X97334582Y-41502739D01*
X97494365Y-41183970D01*
X96160000Y-39849605D01*
X94825635Y-41183970D01*
X83774365Y-41183970D01*
X82440000Y-39849605D01*
X81105635Y-41183970D01*
X77494365Y-41183970D01*
X76160000Y-39849605D01*
X74825635Y-41183970D01*
X63774365Y-41183970D01*
X62440000Y-39849605D01*
X61105635Y-41183970D01*
X57494365Y-41183970D01*
X56160000Y-39849605D01*
X54825635Y-41183970D01*
X43774365Y-41183970D01*
X42440000Y-39849605D01*
X41105635Y-41183970D01*
X37494365Y-41183970D01*
X36160000Y-39849605D01*
X34825635Y-41183970D01*
X23774365Y-41183970D01*
X22440000Y-39849605D01*
X21105635Y-41183970D01*
X20710000Y-41183970D01*
X20710000Y-40896080D01*
X20926030Y-41004365D01*
X22260395Y-39670000D01*
X22619605Y-39670000D01*
X23953970Y-41004365D01*
X24272739Y-40844582D01*
X24582723Y-40053813D01*
X24568056Y-39286187D01*
X34017277Y-39286187D01*
X34033503Y-40135387D01*
X34327261Y-40844582D01*
X34646030Y-41004365D01*
X35980395Y-39670000D01*
X36339605Y-39670000D01*
X37673970Y-41004365D01*
X37992739Y-40844582D01*
X38302723Y-40053813D01*
X38288056Y-39286187D01*
X40297277Y-39286187D01*
X40313503Y-40135387D01*
X40607261Y-40844582D01*
X40926030Y-41004365D01*
X42260395Y-39670000D01*
X42619605Y-39670000D01*
X43953970Y-41004365D01*
X44272739Y-40844582D01*
X44582723Y-40053813D01*
X44568056Y-39286187D01*
X54017277Y-39286187D01*
X54033503Y-40135387D01*
X54327261Y-40844582D01*
X54646030Y-41004365D01*
X55980395Y-39670000D01*
X56339605Y-39670000D01*
X57673970Y-41004365D01*
X57992739Y-40844582D01*
X58302723Y-40053813D01*
X58288056Y-39286187D01*
X60297277Y-39286187D01*
X60313503Y-40135387D01*
X60607261Y-40844582D01*
X60926030Y-41004365D01*
X62260395Y-39670000D01*
X62619605Y-39670000D01*
X63953970Y-41004365D01*
X64272739Y-40844582D01*
X64582723Y-40053813D01*
X64568056Y-39286187D01*
X74017277Y-39286187D01*
X74033503Y-40135387D01*
X74327261Y-40844582D01*
X74646030Y-41004365D01*
X75980395Y-39670000D01*
X76339605Y-39670000D01*
X77673970Y-41004365D01*
X77992739Y-40844582D01*
X78302723Y-40053813D01*
X78288056Y-39286187D01*
X80297277Y-39286187D01*
X80313503Y-40135387D01*
X80607261Y-40844582D01*
X80926030Y-41004365D01*
X82260395Y-39670000D01*
X82619605Y-39670000D01*
X83953970Y-41004365D01*
X84272739Y-40844582D01*
X84582723Y-40053813D01*
X84568056Y-39286187D01*
X94017277Y-39286187D01*
X94033503Y-40135387D01*
X94327261Y-40844582D01*
X94646030Y-41004365D01*
X95980395Y-39670000D01*
X96339605Y-39670000D01*
X97673970Y-41004365D01*
X97992739Y-40844582D01*
X98302723Y-40053813D01*
X98286497Y-39204613D01*
X97992739Y-38495418D01*
X97673970Y-38335635D01*
X96339605Y-39670000D01*
X95980395Y-39670000D01*
X94646030Y-38335635D01*
X94327261Y-38495418D01*
X94017277Y-39286187D01*
X84568056Y-39286187D01*
X84566497Y-39204613D01*
X84272739Y-38495418D01*
X83953970Y-38335635D01*
X82619605Y-39670000D01*
X82260395Y-39670000D01*
X80926030Y-38335635D01*
X80607261Y-38495418D01*
X80297277Y-39286187D01*
X78288056Y-39286187D01*
X78286497Y-39204613D01*
X77992739Y-38495418D01*
X77673970Y-38335635D01*
X76339605Y-39670000D01*
X75980395Y-39670000D01*
X74646030Y-38335635D01*
X74327261Y-38495418D01*
X74017277Y-39286187D01*
X64568056Y-39286187D01*
X64566497Y-39204613D01*
X64272739Y-38495418D01*
X63953970Y-38335635D01*
X62619605Y-39670000D01*
X62260395Y-39670000D01*
X60926030Y-38335635D01*
X60607261Y-38495418D01*
X60297277Y-39286187D01*
X58288056Y-39286187D01*
X58286497Y-39204613D01*
X57992739Y-38495418D01*
X57673970Y-38335635D01*
X56339605Y-39670000D01*
X55980395Y-39670000D01*
X54646030Y-38335635D01*
X54327261Y-38495418D01*
X54017277Y-39286187D01*
X44568056Y-39286187D01*
X44566497Y-39204613D01*
X44272739Y-38495418D01*
X43953970Y-38335635D01*
X42619605Y-39670000D01*
X42260395Y-39670000D01*
X40926030Y-38335635D01*
X40607261Y-38495418D01*
X40297277Y-39286187D01*
X38288056Y-39286187D01*
X38286497Y-39204613D01*
X37992739Y-38495418D01*
X37673970Y-38335635D01*
X36339605Y-39670000D01*
X35980395Y-39670000D01*
X34646030Y-38335635D01*
X34327261Y-38495418D01*
X34017277Y-39286187D01*
X24568056Y-39286187D01*
X24566497Y-39204613D01*
X24272739Y-38495418D01*
X23953970Y-38335635D01*
X22619605Y-39670000D01*
X22260395Y-39670000D01*
X20926030Y-38335635D01*
X20710000Y-38443920D01*
X20710000Y-38156030D01*
X21105635Y-38156030D01*
X22440000Y-39490395D01*
X23774365Y-38156030D01*
X23614582Y-37837261D01*
X22823813Y-37527277D01*
X21974613Y-37543503D01*
X21265418Y-37837261D01*
X21105635Y-38156030D01*
X20710000Y-38156030D01*
X20710000Y-36724506D01*
X24615000Y-36724506D01*
X24615000Y-37275494D01*
X24825853Y-37784540D01*
X25215460Y-38174147D01*
X25724506Y-38385000D01*
X26275494Y-38385000D01*
X26784540Y-38174147D01*
X27174147Y-37784540D01*
X27270000Y-37553130D01*
X27365853Y-37784540D01*
X27755460Y-38174147D01*
X28264506Y-38385000D01*
X28815494Y-38385000D01*
X29324540Y-38174147D01*
X29555000Y-37943687D01*
X29785460Y-38174147D01*
X30294506Y-38385000D01*
X30845494Y-38385000D01*
X31354540Y-38174147D01*
X31557170Y-37971517D01*
X32318088Y-37971517D01*
X32386077Y-38212460D01*
X32905171Y-38397201D01*
X33455448Y-38369230D01*
X33833923Y-38212460D01*
X33849846Y-38156030D01*
X34825635Y-38156030D01*
X36160000Y-39490395D01*
X37494365Y-38156030D01*
X41105635Y-38156030D01*
X42440000Y-39490395D01*
X43774365Y-38156030D01*
X43614582Y-37837261D01*
X42823813Y-37527277D01*
X41974613Y-37543503D01*
X41265418Y-37837261D01*
X41105635Y-38156030D01*
X37494365Y-38156030D01*
X37334582Y-37837261D01*
X36543813Y-37527277D01*
X35694613Y-37543503D01*
X34985418Y-37837261D01*
X34825635Y-38156030D01*
X33849846Y-38156030D01*
X33901912Y-37971517D01*
X33110000Y-37179605D01*
X32318088Y-37971517D01*
X31557170Y-37971517D01*
X31744147Y-37784540D01*
X31833397Y-37569070D01*
X31897540Y-37723923D01*
X32138483Y-37791912D01*
X32930395Y-37000000D01*
X33289605Y-37000000D01*
X34081517Y-37791912D01*
X34322460Y-37723923D01*
X34507201Y-37204829D01*
X34482786Y-36724506D01*
X44615000Y-36724506D01*
X44615000Y-37275494D01*
X44825853Y-37784540D01*
X45215460Y-38174147D01*
X45724506Y-38385000D01*
X46275494Y-38385000D01*
X46784540Y-38174147D01*
X47174147Y-37784540D01*
X47270000Y-37553130D01*
X47365853Y-37784540D01*
X47755460Y-38174147D01*
X48264506Y-38385000D01*
X48815494Y-38385000D01*
X49324540Y-38174147D01*
X49555000Y-37943687D01*
X49785460Y-38174147D01*
X50294506Y-38385000D01*
X50845494Y-38385000D01*
X51354540Y-38174147D01*
X51557170Y-37971517D01*
X52318088Y-37971517D01*
X52386077Y-38212460D01*
X52905171Y-38397201D01*
X53455448Y-38369230D01*
X53833923Y-38212460D01*
X53849846Y-38156030D01*
X54825635Y-38156030D01*
X56160000Y-39490395D01*
X57494365Y-38156030D01*
X61105635Y-38156030D01*
X62440000Y-39490395D01*
X63774365Y-38156030D01*
X63614582Y-37837261D01*
X62823813Y-37527277D01*
X61974613Y-37543503D01*
X61265418Y-37837261D01*
X61105635Y-38156030D01*
X57494365Y-38156030D01*
X57334582Y-37837261D01*
X56543813Y-37527277D01*
X55694613Y-37543503D01*
X54985418Y-37837261D01*
X54825635Y-38156030D01*
X53849846Y-38156030D01*
X53901912Y-37971517D01*
X53110000Y-37179605D01*
X52318088Y-37971517D01*
X51557170Y-37971517D01*
X51744147Y-37784540D01*
X51833397Y-37569070D01*
X51897540Y-37723923D01*
X52138483Y-37791912D01*
X52930395Y-37000000D01*
X53289605Y-37000000D01*
X54081517Y-37791912D01*
X54322460Y-37723923D01*
X54507201Y-37204829D01*
X54482786Y-36724506D01*
X64615000Y-36724506D01*
X64615000Y-37275494D01*
X64825853Y-37784540D01*
X65215460Y-38174147D01*
X65724506Y-38385000D01*
X66275494Y-38385000D01*
X66784540Y-38174147D01*
X67174147Y-37784540D01*
X67270000Y-37553130D01*
X67365853Y-37784540D01*
X67755460Y-38174147D01*
X68264506Y-38385000D01*
X68815494Y-38385000D01*
X69324540Y-38174147D01*
X69555000Y-37943687D01*
X69785460Y-38174147D01*
X70294506Y-38385000D01*
X70845494Y-38385000D01*
X71354540Y-38174147D01*
X71557170Y-37971517D01*
X72318088Y-37971517D01*
X72386077Y-38212460D01*
X72905171Y-38397201D01*
X73455448Y-38369230D01*
X73833923Y-38212460D01*
X73849846Y-38156030D01*
X74825635Y-38156030D01*
X76160000Y-39490395D01*
X77494365Y-38156030D01*
X81105635Y-38156030D01*
X82440000Y-39490395D01*
X83774365Y-38156030D01*
X83614582Y-37837261D01*
X82823813Y-37527277D01*
X81974613Y-37543503D01*
X81265418Y-37837261D01*
X81105635Y-38156030D01*
X77494365Y-38156030D01*
X77334582Y-37837261D01*
X76543813Y-37527277D01*
X75694613Y-37543503D01*
X74985418Y-37837261D01*
X74825635Y-38156030D01*
X73849846Y-38156030D01*
X73901912Y-37971517D01*
X73110000Y-37179605D01*
X72318088Y-37971517D01*
X71557170Y-37971517D01*
X71744147Y-37784540D01*
X71833397Y-37569070D01*
X71897540Y-37723923D01*
X72138483Y-37791912D01*
X72930395Y-37000000D01*
X73289605Y-37000000D01*
X74081517Y-37791912D01*
X74322460Y-37723923D01*
X74507201Y-37204829D01*
X74482786Y-36724506D01*
X84615000Y-36724506D01*
X84615000Y-37275494D01*
X84825853Y-37784540D01*
X85215460Y-38174147D01*
X85724506Y-38385000D01*
X86275494Y-38385000D01*
X86784540Y-38174147D01*
X87174147Y-37784540D01*
X87270000Y-37553130D01*
X87365853Y-37784540D01*
X87755460Y-38174147D01*
X88264506Y-38385000D01*
X88815494Y-38385000D01*
X89324540Y-38174147D01*
X89555000Y-37943687D01*
X89785460Y-38174147D01*
X90294506Y-38385000D01*
X90845494Y-38385000D01*
X91354540Y-38174147D01*
X91557170Y-37971517D01*
X92318088Y-37971517D01*
X92386077Y-38212460D01*
X92905171Y-38397201D01*
X93455448Y-38369230D01*
X93833923Y-38212460D01*
X93849846Y-38156030D01*
X94825635Y-38156030D01*
X96160000Y-39490395D01*
X97494365Y-38156030D01*
X97334582Y-37837261D01*
X96543813Y-37527277D01*
X95694613Y-37543503D01*
X94985418Y-37837261D01*
X94825635Y-38156030D01*
X93849846Y-38156030D01*
X93901912Y-37971517D01*
X93110000Y-37179605D01*
X92318088Y-37971517D01*
X91557170Y-37971517D01*
X91744147Y-37784540D01*
X91833397Y-37569070D01*
X91897540Y-37723923D01*
X92138483Y-37791912D01*
X92930395Y-37000000D01*
X93289605Y-37000000D01*
X94081517Y-37791912D01*
X94322460Y-37723923D01*
X94507201Y-37204829D01*
X94479230Y-36654552D01*
X94322460Y-36276077D01*
X94081517Y-36208088D01*
X93289605Y-37000000D01*
X92930395Y-37000000D01*
X92138483Y-36208088D01*
X91897540Y-36276077D01*
X91838255Y-36442658D01*
X91744147Y-36215460D01*
X91557170Y-36028483D01*
X92318088Y-36028483D01*
X93110000Y-36820395D01*
X93901912Y-36028483D01*
X93833923Y-35787540D01*
X93314829Y-35602799D01*
X92764552Y-35630770D01*
X92386077Y-35787540D01*
X92318088Y-36028483D01*
X91557170Y-36028483D01*
X91354540Y-35825853D01*
X90845494Y-35615000D01*
X90294506Y-35615000D01*
X89785460Y-35825853D01*
X89555000Y-36056313D01*
X89324540Y-35825853D01*
X88815494Y-35615000D01*
X88264506Y-35615000D01*
X87755460Y-35825853D01*
X87365853Y-36215460D01*
X87270000Y-36446870D01*
X87174147Y-36215460D01*
X86784540Y-35825853D01*
X86275494Y-35615000D01*
X85724506Y-35615000D01*
X85215460Y-35825853D01*
X84825853Y-36215460D01*
X84615000Y-36724506D01*
X74482786Y-36724506D01*
X74479230Y-36654552D01*
X74322460Y-36276077D01*
X74081517Y-36208088D01*
X73289605Y-37000000D01*
X72930395Y-37000000D01*
X72138483Y-36208088D01*
X71897540Y-36276077D01*
X71838255Y-36442658D01*
X71744147Y-36215460D01*
X71557170Y-36028483D01*
X72318088Y-36028483D01*
X73110000Y-36820395D01*
X73901912Y-36028483D01*
X73833923Y-35787540D01*
X73314829Y-35602799D01*
X72764552Y-35630770D01*
X72386077Y-35787540D01*
X72318088Y-36028483D01*
X71557170Y-36028483D01*
X71354540Y-35825853D01*
X70845494Y-35615000D01*
X70294506Y-35615000D01*
X69785460Y-35825853D01*
X69555000Y-36056313D01*
X69324540Y-35825853D01*
X68815494Y-35615000D01*
X68264506Y-35615000D01*
X67755460Y-35825853D01*
X67365853Y-36215460D01*
X67270000Y-36446870D01*
X67174147Y-36215460D01*
X66784540Y-35825853D01*
X66275494Y-35615000D01*
X65724506Y-35615000D01*
X65215460Y-35825853D01*
X64825853Y-36215460D01*
X64615000Y-36724506D01*
X54482786Y-36724506D01*
X54479230Y-36654552D01*
X54322460Y-36276077D01*
X54081517Y-36208088D01*
X53289605Y-37000000D01*
X52930395Y-37000000D01*
X52138483Y-36208088D01*
X51897540Y-36276077D01*
X51838255Y-36442658D01*
X51744147Y-36215460D01*
X51557170Y-36028483D01*
X52318088Y-36028483D01*
X53110000Y-36820395D01*
X53901912Y-36028483D01*
X53833923Y-35787540D01*
X53314829Y-35602799D01*
X52764552Y-35630770D01*
X52386077Y-35787540D01*
X52318088Y-36028483D01*
X51557170Y-36028483D01*
X51354540Y-35825853D01*
X50845494Y-35615000D01*
X50294506Y-35615000D01*
X49785460Y-35825853D01*
X49555000Y-36056313D01*
X49324540Y-35825853D01*
X48815494Y-35615000D01*
X48264506Y-35615000D01*
X47755460Y-35825853D01*
X47365853Y-36215460D01*
X47270000Y-36446870D01*
X47174147Y-36215460D01*
X46784540Y-35825853D01*
X46275494Y-35615000D01*
X45724506Y-35615000D01*
X45215460Y-35825853D01*
X44825853Y-36215460D01*
X44615000Y-36724506D01*
X34482786Y-36724506D01*
X34479230Y-36654552D01*
X34322460Y-36276077D01*
X34081517Y-36208088D01*
X33289605Y-37000000D01*
X32930395Y-37000000D01*
X32138483Y-36208088D01*
X31897540Y-36276077D01*
X31838255Y-36442658D01*
X31744147Y-36215460D01*
X31557170Y-36028483D01*
X32318088Y-36028483D01*
X33110000Y-36820395D01*
X33901912Y-36028483D01*
X33833923Y-35787540D01*
X33314829Y-35602799D01*
X32764552Y-35630770D01*
X32386077Y-35787540D01*
X32318088Y-36028483D01*
X31557170Y-36028483D01*
X31354540Y-35825853D01*
X30845494Y-35615000D01*
X30294506Y-35615000D01*
X29785460Y-35825853D01*
X29555000Y-36056313D01*
X29324540Y-35825853D01*
X28815494Y-35615000D01*
X28264506Y-35615000D01*
X27755460Y-35825853D01*
X27365853Y-36215460D01*
X27270000Y-36446870D01*
X27174147Y-36215460D01*
X26784540Y-35825853D01*
X26275494Y-35615000D01*
X25724506Y-35615000D01*
X25215460Y-35825853D01*
X24825853Y-36215460D01*
X24615000Y-36724506D01*
X20710000Y-36724506D01*
X20710000Y-32674778D01*
X81365000Y-32674778D01*
X81365000Y-33325222D01*
X81613914Y-33926153D01*
X82073847Y-34386086D01*
X82674778Y-34635000D01*
X83325222Y-34635000D01*
X83926153Y-34386086D01*
X84386086Y-33926153D01*
X84635000Y-33325222D01*
X84635000Y-32674778D01*
X84386086Y-32073847D01*
X83926153Y-31613914D01*
X83325222Y-31365000D01*
X82674778Y-31365000D01*
X82073847Y-31613914D01*
X81613914Y-32073847D01*
X81365000Y-32674778D01*
X20710000Y-32674778D01*
X20710000Y-28022239D01*
X21073847Y-28386086D01*
X21674778Y-28635000D01*
X22325222Y-28635000D01*
X22926153Y-28386086D01*
X23386086Y-27926153D01*
X23635000Y-27325222D01*
X23635000Y-26674778D01*
X23386086Y-26073847D01*
X22926153Y-25613914D01*
X22325222Y-25365000D01*
X21674778Y-25365000D01*
X21073847Y-25613914D01*
X20710000Y-25977761D01*
X20710000Y-22650000D01*
X72002560Y-22650000D01*
X72002560Y-24350000D01*
X72051843Y-24597765D01*
X72192191Y-24807809D01*
X72402235Y-24948157D01*
X72650000Y-24997440D01*
X74350000Y-24997440D01*
X74597765Y-24948157D01*
X74807809Y-24807809D01*
X74948157Y-24597765D01*
X74968739Y-24494292D01*
X75273076Y-24771645D01*
X75683110Y-24941476D01*
X75913000Y-24820155D01*
X75913000Y-23627000D01*
X76167000Y-23627000D01*
X76167000Y-24820155D01*
X76396890Y-24941476D01*
X76806924Y-24771645D01*
X77235183Y-24381358D01*
X77481486Y-23856892D01*
X77360819Y-23627000D01*
X76167000Y-23627000D01*
X75913000Y-23627000D01*
X75893000Y-23627000D01*
X75893000Y-23373000D01*
X75913000Y-23373000D01*
X75913000Y-22179845D01*
X76167000Y-22179845D01*
X76167000Y-23373000D01*
X77360819Y-23373000D01*
X77481486Y-23143108D01*
X77235183Y-22618642D01*
X76806924Y-22228355D01*
X76396890Y-22058524D01*
X76167000Y-22179845D01*
X75913000Y-22179845D01*
X75683110Y-22058524D01*
X75273076Y-22228355D01*
X74968739Y-22505708D01*
X74948157Y-22402235D01*
X74807809Y-22192191D01*
X74597765Y-22051843D01*
X74350000Y-22002560D01*
X72650000Y-22002560D01*
X72402235Y-22051843D01*
X72192191Y-22192191D01*
X72051843Y-22402235D01*
X72002560Y-22650000D01*
X20710000Y-22650000D01*
X20710000Y-20484180D01*
X90715000Y-20484180D01*
X90715000Y-20915820D01*
X90880182Y-21314603D01*
X91185397Y-21619818D01*
X91584180Y-21785000D01*
X92015820Y-21785000D01*
X92414603Y-21619818D01*
X92719818Y-21314603D01*
X92885000Y-20915820D01*
X92885000Y-20484180D01*
X95115000Y-20484180D01*
X95115000Y-20915820D01*
X95280182Y-21314603D01*
X95585397Y-21619818D01*
X95984180Y-21785000D01*
X96415820Y-21785000D01*
X96814603Y-21619818D01*
X97119818Y-21314603D01*
X97285000Y-20915820D01*
X97285000Y-20484180D01*
X97119818Y-20085397D01*
X96814603Y-19780182D01*
X96415820Y-19615000D01*
X95984180Y-19615000D01*
X95585397Y-19780182D01*
X95280182Y-20085397D01*
X95115000Y-20484180D01*
X92885000Y-20484180D01*
X92719818Y-20085397D01*
X92414603Y-19780182D01*
X92015820Y-19615000D01*
X91584180Y-19615000D01*
X91185397Y-19780182D01*
X90880182Y-20085397D01*
X90715000Y-20484180D01*
X20710000Y-20484180D01*
X20710000Y-18022239D01*
X21073847Y-18386086D01*
X21674778Y-18635000D01*
X22325222Y-18635000D01*
X22926153Y-18386086D01*
X23386086Y-17926153D01*
X23635000Y-17325222D01*
X23635000Y-16674778D01*
X23386086Y-16073847D01*
X23022239Y-15710000D01*
X84977761Y-15710000D01*
X84613914Y-16073847D01*
G04 #@! TD*
M02*
