G04 #@! TF.GenerationSoftware,KiCad,Pcbnew,(5.0.1-3-g963ef8bb5)*
G04 #@! TF.CreationDate,2018-11-25T15:23:06-05:00*
G04 #@! TF.ProjectId,usb-hub,7573622D6875622E6B696361645F7063,rev?*
G04 #@! TF.SameCoordinates,Original*
G04 #@! TF.FileFunction,Soldermask,Top*
G04 #@! TF.FilePolarity,Negative*
%FSLAX46Y46*%
G04 Gerber Fmt 4.6, Leading zero omitted, Abs format (unit mm)*
G04 Created by KiCad (PCBNEW (5.0.1-3-g963ef8bb5)) date Sunday, November 25, 2018 at 03:23:06 PM*
%MOMM*%
%LPD*%
G01*
G04 APERTURE LIST*
%ADD10C,0.100000*%
G04 APERTURE END LIST*
D10*
G36*
X96512527Y-38158736D02*
X96612410Y-38178604D01*
X96894674Y-38295521D01*
X97148705Y-38465259D01*
X97364741Y-38681295D01*
X97534479Y-38935326D01*
X97651396Y-39217590D01*
X97711000Y-39517240D01*
X97711000Y-39822760D01*
X97651396Y-40122410D01*
X97534479Y-40404674D01*
X97364741Y-40658705D01*
X97148705Y-40874741D01*
X96894674Y-41044479D01*
X96612410Y-41161396D01*
X96512527Y-41181264D01*
X96312762Y-41221000D01*
X96007238Y-41221000D01*
X95807473Y-41181264D01*
X95707590Y-41161396D01*
X95425326Y-41044479D01*
X95171295Y-40874741D01*
X94955259Y-40658705D01*
X94785521Y-40404674D01*
X94668604Y-40122410D01*
X94609000Y-39822760D01*
X94609000Y-39517240D01*
X94668604Y-39217590D01*
X94785521Y-38935326D01*
X94955259Y-38681295D01*
X95171295Y-38465259D01*
X95425326Y-38295521D01*
X95707590Y-38178604D01*
X95807473Y-38158736D01*
X96007238Y-38119000D01*
X96312762Y-38119000D01*
X96512527Y-38158736D01*
X96512527Y-38158736D01*
G37*
G36*
X82792527Y-38158736D02*
X82892410Y-38178604D01*
X83174674Y-38295521D01*
X83428705Y-38465259D01*
X83644741Y-38681295D01*
X83814479Y-38935326D01*
X83931396Y-39217590D01*
X83991000Y-39517240D01*
X83991000Y-39822760D01*
X83931396Y-40122410D01*
X83814479Y-40404674D01*
X83644741Y-40658705D01*
X83428705Y-40874741D01*
X83174674Y-41044479D01*
X82892410Y-41161396D01*
X82792527Y-41181264D01*
X82592762Y-41221000D01*
X82287238Y-41221000D01*
X82087473Y-41181264D01*
X81987590Y-41161396D01*
X81705326Y-41044479D01*
X81451295Y-40874741D01*
X81235259Y-40658705D01*
X81065521Y-40404674D01*
X80948604Y-40122410D01*
X80889000Y-39822760D01*
X80889000Y-39517240D01*
X80948604Y-39217590D01*
X81065521Y-38935326D01*
X81235259Y-38681295D01*
X81451295Y-38465259D01*
X81705326Y-38295521D01*
X81987590Y-38178604D01*
X82087473Y-38158736D01*
X82287238Y-38119000D01*
X82592762Y-38119000D01*
X82792527Y-38158736D01*
X82792527Y-38158736D01*
G37*
G36*
X76512527Y-38158736D02*
X76612410Y-38178604D01*
X76894674Y-38295521D01*
X77148705Y-38465259D01*
X77364741Y-38681295D01*
X77534479Y-38935326D01*
X77651396Y-39217590D01*
X77711000Y-39517240D01*
X77711000Y-39822760D01*
X77651396Y-40122410D01*
X77534479Y-40404674D01*
X77364741Y-40658705D01*
X77148705Y-40874741D01*
X76894674Y-41044479D01*
X76612410Y-41161396D01*
X76512527Y-41181264D01*
X76312762Y-41221000D01*
X76007238Y-41221000D01*
X75807473Y-41181264D01*
X75707590Y-41161396D01*
X75425326Y-41044479D01*
X75171295Y-40874741D01*
X74955259Y-40658705D01*
X74785521Y-40404674D01*
X74668604Y-40122410D01*
X74609000Y-39822760D01*
X74609000Y-39517240D01*
X74668604Y-39217590D01*
X74785521Y-38935326D01*
X74955259Y-38681295D01*
X75171295Y-38465259D01*
X75425326Y-38295521D01*
X75707590Y-38178604D01*
X75807473Y-38158736D01*
X76007238Y-38119000D01*
X76312762Y-38119000D01*
X76512527Y-38158736D01*
X76512527Y-38158736D01*
G37*
G36*
X62792527Y-38158736D02*
X62892410Y-38178604D01*
X63174674Y-38295521D01*
X63428705Y-38465259D01*
X63644741Y-38681295D01*
X63814479Y-38935326D01*
X63931396Y-39217590D01*
X63991000Y-39517240D01*
X63991000Y-39822760D01*
X63931396Y-40122410D01*
X63814479Y-40404674D01*
X63644741Y-40658705D01*
X63428705Y-40874741D01*
X63174674Y-41044479D01*
X62892410Y-41161396D01*
X62792527Y-41181264D01*
X62592762Y-41221000D01*
X62287238Y-41221000D01*
X62087473Y-41181264D01*
X61987590Y-41161396D01*
X61705326Y-41044479D01*
X61451295Y-40874741D01*
X61235259Y-40658705D01*
X61065521Y-40404674D01*
X60948604Y-40122410D01*
X60889000Y-39822760D01*
X60889000Y-39517240D01*
X60948604Y-39217590D01*
X61065521Y-38935326D01*
X61235259Y-38681295D01*
X61451295Y-38465259D01*
X61705326Y-38295521D01*
X61987590Y-38178604D01*
X62087473Y-38158736D01*
X62287238Y-38119000D01*
X62592762Y-38119000D01*
X62792527Y-38158736D01*
X62792527Y-38158736D01*
G37*
G36*
X56512527Y-38158736D02*
X56612410Y-38178604D01*
X56894674Y-38295521D01*
X57148705Y-38465259D01*
X57364741Y-38681295D01*
X57534479Y-38935326D01*
X57651396Y-39217590D01*
X57711000Y-39517240D01*
X57711000Y-39822760D01*
X57651396Y-40122410D01*
X57534479Y-40404674D01*
X57364741Y-40658705D01*
X57148705Y-40874741D01*
X56894674Y-41044479D01*
X56612410Y-41161396D01*
X56512527Y-41181264D01*
X56312762Y-41221000D01*
X56007238Y-41221000D01*
X55807473Y-41181264D01*
X55707590Y-41161396D01*
X55425326Y-41044479D01*
X55171295Y-40874741D01*
X54955259Y-40658705D01*
X54785521Y-40404674D01*
X54668604Y-40122410D01*
X54609000Y-39822760D01*
X54609000Y-39517240D01*
X54668604Y-39217590D01*
X54785521Y-38935326D01*
X54955259Y-38681295D01*
X55171295Y-38465259D01*
X55425326Y-38295521D01*
X55707590Y-38178604D01*
X55807473Y-38158736D01*
X56007238Y-38119000D01*
X56312762Y-38119000D01*
X56512527Y-38158736D01*
X56512527Y-38158736D01*
G37*
G36*
X42792527Y-38158736D02*
X42892410Y-38178604D01*
X43174674Y-38295521D01*
X43428705Y-38465259D01*
X43644741Y-38681295D01*
X43814479Y-38935326D01*
X43931396Y-39217590D01*
X43991000Y-39517240D01*
X43991000Y-39822760D01*
X43931396Y-40122410D01*
X43814479Y-40404674D01*
X43644741Y-40658705D01*
X43428705Y-40874741D01*
X43174674Y-41044479D01*
X42892410Y-41161396D01*
X42792527Y-41181264D01*
X42592762Y-41221000D01*
X42287238Y-41221000D01*
X42087473Y-41181264D01*
X41987590Y-41161396D01*
X41705326Y-41044479D01*
X41451295Y-40874741D01*
X41235259Y-40658705D01*
X41065521Y-40404674D01*
X40948604Y-40122410D01*
X40889000Y-39822760D01*
X40889000Y-39517240D01*
X40948604Y-39217590D01*
X41065521Y-38935326D01*
X41235259Y-38681295D01*
X41451295Y-38465259D01*
X41705326Y-38295521D01*
X41987590Y-38178604D01*
X42087473Y-38158736D01*
X42287238Y-38119000D01*
X42592762Y-38119000D01*
X42792527Y-38158736D01*
X42792527Y-38158736D01*
G37*
G36*
X36512527Y-38158736D02*
X36612410Y-38178604D01*
X36894674Y-38295521D01*
X37148705Y-38465259D01*
X37364741Y-38681295D01*
X37534479Y-38935326D01*
X37651396Y-39217590D01*
X37711000Y-39517240D01*
X37711000Y-39822760D01*
X37651396Y-40122410D01*
X37534479Y-40404674D01*
X37364741Y-40658705D01*
X37148705Y-40874741D01*
X36894674Y-41044479D01*
X36612410Y-41161396D01*
X36512527Y-41181264D01*
X36312762Y-41221000D01*
X36007238Y-41221000D01*
X35807473Y-41181264D01*
X35707590Y-41161396D01*
X35425326Y-41044479D01*
X35171295Y-40874741D01*
X34955259Y-40658705D01*
X34785521Y-40404674D01*
X34668604Y-40122410D01*
X34609000Y-39822760D01*
X34609000Y-39517240D01*
X34668604Y-39217590D01*
X34785521Y-38935326D01*
X34955259Y-38681295D01*
X35171295Y-38465259D01*
X35425326Y-38295521D01*
X35707590Y-38178604D01*
X35807473Y-38158736D01*
X36007238Y-38119000D01*
X36312762Y-38119000D01*
X36512527Y-38158736D01*
X36512527Y-38158736D01*
G37*
G36*
X22792527Y-38158736D02*
X22892410Y-38178604D01*
X23174674Y-38295521D01*
X23428705Y-38465259D01*
X23644741Y-38681295D01*
X23814479Y-38935326D01*
X23931396Y-39217590D01*
X23991000Y-39517240D01*
X23991000Y-39822760D01*
X23931396Y-40122410D01*
X23814479Y-40404674D01*
X23644741Y-40658705D01*
X23428705Y-40874741D01*
X23174674Y-41044479D01*
X22892410Y-41161396D01*
X22792527Y-41181264D01*
X22592762Y-41221000D01*
X22287238Y-41221000D01*
X22087473Y-41181264D01*
X21987590Y-41161396D01*
X21705326Y-41044479D01*
X21451295Y-40874741D01*
X21235259Y-40658705D01*
X21065521Y-40404674D01*
X20948604Y-40122410D01*
X20889000Y-39822760D01*
X20889000Y-39517240D01*
X20948604Y-39217590D01*
X21065521Y-38935326D01*
X21235259Y-38681295D01*
X21451295Y-38465259D01*
X21705326Y-38295521D01*
X21987590Y-38178604D01*
X22087473Y-38158736D01*
X22287238Y-38119000D01*
X22592762Y-38119000D01*
X22792527Y-38158736D01*
X22792527Y-38158736D01*
G37*
G36*
X53343643Y-36229781D02*
X53489415Y-36290162D01*
X53620611Y-36377824D01*
X53732176Y-36489389D01*
X53819838Y-36620585D01*
X53880219Y-36766357D01*
X53911000Y-36921107D01*
X53911000Y-37078893D01*
X53880219Y-37233643D01*
X53819838Y-37379415D01*
X53732176Y-37510611D01*
X53620611Y-37622176D01*
X53489415Y-37709838D01*
X53343643Y-37770219D01*
X53188893Y-37801000D01*
X53031107Y-37801000D01*
X52876357Y-37770219D01*
X52730585Y-37709838D01*
X52599389Y-37622176D01*
X52487824Y-37510611D01*
X52400162Y-37379415D01*
X52339781Y-37233643D01*
X52309000Y-37078893D01*
X52309000Y-36921107D01*
X52339781Y-36766357D01*
X52400162Y-36620585D01*
X52487824Y-36489389D01*
X52599389Y-36377824D01*
X52730585Y-36290162D01*
X52876357Y-36229781D01*
X53031107Y-36199000D01*
X53188893Y-36199000D01*
X53343643Y-36229781D01*
X53343643Y-36229781D01*
G37*
G36*
X50803643Y-36229781D02*
X50949415Y-36290162D01*
X51080611Y-36377824D01*
X51192176Y-36489389D01*
X51279838Y-36620585D01*
X51340219Y-36766357D01*
X51371000Y-36921107D01*
X51371000Y-37078893D01*
X51340219Y-37233643D01*
X51279838Y-37379415D01*
X51192176Y-37510611D01*
X51080611Y-37622176D01*
X50949415Y-37709838D01*
X50803643Y-37770219D01*
X50648893Y-37801000D01*
X50491107Y-37801000D01*
X50336357Y-37770219D01*
X50190585Y-37709838D01*
X50059389Y-37622176D01*
X49947824Y-37510611D01*
X49860162Y-37379415D01*
X49799781Y-37233643D01*
X49769000Y-37078893D01*
X49769000Y-36921107D01*
X49799781Y-36766357D01*
X49860162Y-36620585D01*
X49947824Y-36489389D01*
X50059389Y-36377824D01*
X50190585Y-36290162D01*
X50336357Y-36229781D01*
X50491107Y-36199000D01*
X50648893Y-36199000D01*
X50803643Y-36229781D01*
X50803643Y-36229781D01*
G37*
G36*
X48773643Y-36229781D02*
X48919415Y-36290162D01*
X49050611Y-36377824D01*
X49162176Y-36489389D01*
X49249838Y-36620585D01*
X49310219Y-36766357D01*
X49341000Y-36921107D01*
X49341000Y-37078893D01*
X49310219Y-37233643D01*
X49249838Y-37379415D01*
X49162176Y-37510611D01*
X49050611Y-37622176D01*
X48919415Y-37709838D01*
X48773643Y-37770219D01*
X48618893Y-37801000D01*
X48461107Y-37801000D01*
X48306357Y-37770219D01*
X48160585Y-37709838D01*
X48029389Y-37622176D01*
X47917824Y-37510611D01*
X47830162Y-37379415D01*
X47769781Y-37233643D01*
X47739000Y-37078893D01*
X47739000Y-36921107D01*
X47769781Y-36766357D01*
X47830162Y-36620585D01*
X47917824Y-36489389D01*
X48029389Y-36377824D01*
X48160585Y-36290162D01*
X48306357Y-36229781D01*
X48461107Y-36199000D01*
X48618893Y-36199000D01*
X48773643Y-36229781D01*
X48773643Y-36229781D01*
G37*
G36*
X46233643Y-36229781D02*
X46379415Y-36290162D01*
X46510611Y-36377824D01*
X46622176Y-36489389D01*
X46709838Y-36620585D01*
X46770219Y-36766357D01*
X46801000Y-36921107D01*
X46801000Y-37078893D01*
X46770219Y-37233643D01*
X46709838Y-37379415D01*
X46622176Y-37510611D01*
X46510611Y-37622176D01*
X46379415Y-37709838D01*
X46233643Y-37770219D01*
X46078893Y-37801000D01*
X45921107Y-37801000D01*
X45766357Y-37770219D01*
X45620585Y-37709838D01*
X45489389Y-37622176D01*
X45377824Y-37510611D01*
X45290162Y-37379415D01*
X45229781Y-37233643D01*
X45199000Y-37078893D01*
X45199000Y-36921107D01*
X45229781Y-36766357D01*
X45290162Y-36620585D01*
X45377824Y-36489389D01*
X45489389Y-36377824D01*
X45620585Y-36290162D01*
X45766357Y-36229781D01*
X45921107Y-36199000D01*
X46078893Y-36199000D01*
X46233643Y-36229781D01*
X46233643Y-36229781D01*
G37*
G36*
X33343643Y-36229781D02*
X33489415Y-36290162D01*
X33620611Y-36377824D01*
X33732176Y-36489389D01*
X33819838Y-36620585D01*
X33880219Y-36766357D01*
X33911000Y-36921107D01*
X33911000Y-37078893D01*
X33880219Y-37233643D01*
X33819838Y-37379415D01*
X33732176Y-37510611D01*
X33620611Y-37622176D01*
X33489415Y-37709838D01*
X33343643Y-37770219D01*
X33188893Y-37801000D01*
X33031107Y-37801000D01*
X32876357Y-37770219D01*
X32730585Y-37709838D01*
X32599389Y-37622176D01*
X32487824Y-37510611D01*
X32400162Y-37379415D01*
X32339781Y-37233643D01*
X32309000Y-37078893D01*
X32309000Y-36921107D01*
X32339781Y-36766357D01*
X32400162Y-36620585D01*
X32487824Y-36489389D01*
X32599389Y-36377824D01*
X32730585Y-36290162D01*
X32876357Y-36229781D01*
X33031107Y-36199000D01*
X33188893Y-36199000D01*
X33343643Y-36229781D01*
X33343643Y-36229781D01*
G37*
G36*
X30803643Y-36229781D02*
X30949415Y-36290162D01*
X31080611Y-36377824D01*
X31192176Y-36489389D01*
X31279838Y-36620585D01*
X31340219Y-36766357D01*
X31371000Y-36921107D01*
X31371000Y-37078893D01*
X31340219Y-37233643D01*
X31279838Y-37379415D01*
X31192176Y-37510611D01*
X31080611Y-37622176D01*
X30949415Y-37709838D01*
X30803643Y-37770219D01*
X30648893Y-37801000D01*
X30491107Y-37801000D01*
X30336357Y-37770219D01*
X30190585Y-37709838D01*
X30059389Y-37622176D01*
X29947824Y-37510611D01*
X29860162Y-37379415D01*
X29799781Y-37233643D01*
X29769000Y-37078893D01*
X29769000Y-36921107D01*
X29799781Y-36766357D01*
X29860162Y-36620585D01*
X29947824Y-36489389D01*
X30059389Y-36377824D01*
X30190585Y-36290162D01*
X30336357Y-36229781D01*
X30491107Y-36199000D01*
X30648893Y-36199000D01*
X30803643Y-36229781D01*
X30803643Y-36229781D01*
G37*
G36*
X28773643Y-36229781D02*
X28919415Y-36290162D01*
X29050611Y-36377824D01*
X29162176Y-36489389D01*
X29249838Y-36620585D01*
X29310219Y-36766357D01*
X29341000Y-36921107D01*
X29341000Y-37078893D01*
X29310219Y-37233643D01*
X29249838Y-37379415D01*
X29162176Y-37510611D01*
X29050611Y-37622176D01*
X28919415Y-37709838D01*
X28773643Y-37770219D01*
X28618893Y-37801000D01*
X28461107Y-37801000D01*
X28306357Y-37770219D01*
X28160585Y-37709838D01*
X28029389Y-37622176D01*
X27917824Y-37510611D01*
X27830162Y-37379415D01*
X27769781Y-37233643D01*
X27739000Y-37078893D01*
X27739000Y-36921107D01*
X27769781Y-36766357D01*
X27830162Y-36620585D01*
X27917824Y-36489389D01*
X28029389Y-36377824D01*
X28160585Y-36290162D01*
X28306357Y-36229781D01*
X28461107Y-36199000D01*
X28618893Y-36199000D01*
X28773643Y-36229781D01*
X28773643Y-36229781D01*
G37*
G36*
X26233643Y-36229781D02*
X26379415Y-36290162D01*
X26510611Y-36377824D01*
X26622176Y-36489389D01*
X26709838Y-36620585D01*
X26770219Y-36766357D01*
X26801000Y-36921107D01*
X26801000Y-37078893D01*
X26770219Y-37233643D01*
X26709838Y-37379415D01*
X26622176Y-37510611D01*
X26510611Y-37622176D01*
X26379415Y-37709838D01*
X26233643Y-37770219D01*
X26078893Y-37801000D01*
X25921107Y-37801000D01*
X25766357Y-37770219D01*
X25620585Y-37709838D01*
X25489389Y-37622176D01*
X25377824Y-37510611D01*
X25290162Y-37379415D01*
X25229781Y-37233643D01*
X25199000Y-37078893D01*
X25199000Y-36921107D01*
X25229781Y-36766357D01*
X25290162Y-36620585D01*
X25377824Y-36489389D01*
X25489389Y-36377824D01*
X25620585Y-36290162D01*
X25766357Y-36229781D01*
X25921107Y-36199000D01*
X26078893Y-36199000D01*
X26233643Y-36229781D01*
X26233643Y-36229781D01*
G37*
G36*
X66233643Y-36229781D02*
X66379415Y-36290162D01*
X66510611Y-36377824D01*
X66622176Y-36489389D01*
X66709838Y-36620585D01*
X66770219Y-36766357D01*
X66801000Y-36921107D01*
X66801000Y-37078893D01*
X66770219Y-37233643D01*
X66709838Y-37379415D01*
X66622176Y-37510611D01*
X66510611Y-37622176D01*
X66379415Y-37709838D01*
X66233643Y-37770219D01*
X66078893Y-37801000D01*
X65921107Y-37801000D01*
X65766357Y-37770219D01*
X65620585Y-37709838D01*
X65489389Y-37622176D01*
X65377824Y-37510611D01*
X65290162Y-37379415D01*
X65229781Y-37233643D01*
X65199000Y-37078893D01*
X65199000Y-36921107D01*
X65229781Y-36766357D01*
X65290162Y-36620585D01*
X65377824Y-36489389D01*
X65489389Y-36377824D01*
X65620585Y-36290162D01*
X65766357Y-36229781D01*
X65921107Y-36199000D01*
X66078893Y-36199000D01*
X66233643Y-36229781D01*
X66233643Y-36229781D01*
G37*
G36*
X68773643Y-36229781D02*
X68919415Y-36290162D01*
X69050611Y-36377824D01*
X69162176Y-36489389D01*
X69249838Y-36620585D01*
X69310219Y-36766357D01*
X69341000Y-36921107D01*
X69341000Y-37078893D01*
X69310219Y-37233643D01*
X69249838Y-37379415D01*
X69162176Y-37510611D01*
X69050611Y-37622176D01*
X68919415Y-37709838D01*
X68773643Y-37770219D01*
X68618893Y-37801000D01*
X68461107Y-37801000D01*
X68306357Y-37770219D01*
X68160585Y-37709838D01*
X68029389Y-37622176D01*
X67917824Y-37510611D01*
X67830162Y-37379415D01*
X67769781Y-37233643D01*
X67739000Y-37078893D01*
X67739000Y-36921107D01*
X67769781Y-36766357D01*
X67830162Y-36620585D01*
X67917824Y-36489389D01*
X68029389Y-36377824D01*
X68160585Y-36290162D01*
X68306357Y-36229781D01*
X68461107Y-36199000D01*
X68618893Y-36199000D01*
X68773643Y-36229781D01*
X68773643Y-36229781D01*
G37*
G36*
X86233643Y-36229781D02*
X86379415Y-36290162D01*
X86510611Y-36377824D01*
X86622176Y-36489389D01*
X86709838Y-36620585D01*
X86770219Y-36766357D01*
X86801000Y-36921107D01*
X86801000Y-37078893D01*
X86770219Y-37233643D01*
X86709838Y-37379415D01*
X86622176Y-37510611D01*
X86510611Y-37622176D01*
X86379415Y-37709838D01*
X86233643Y-37770219D01*
X86078893Y-37801000D01*
X85921107Y-37801000D01*
X85766357Y-37770219D01*
X85620585Y-37709838D01*
X85489389Y-37622176D01*
X85377824Y-37510611D01*
X85290162Y-37379415D01*
X85229781Y-37233643D01*
X85199000Y-37078893D01*
X85199000Y-36921107D01*
X85229781Y-36766357D01*
X85290162Y-36620585D01*
X85377824Y-36489389D01*
X85489389Y-36377824D01*
X85620585Y-36290162D01*
X85766357Y-36229781D01*
X85921107Y-36199000D01*
X86078893Y-36199000D01*
X86233643Y-36229781D01*
X86233643Y-36229781D01*
G37*
G36*
X88773643Y-36229781D02*
X88919415Y-36290162D01*
X89050611Y-36377824D01*
X89162176Y-36489389D01*
X89249838Y-36620585D01*
X89310219Y-36766357D01*
X89341000Y-36921107D01*
X89341000Y-37078893D01*
X89310219Y-37233643D01*
X89249838Y-37379415D01*
X89162176Y-37510611D01*
X89050611Y-37622176D01*
X88919415Y-37709838D01*
X88773643Y-37770219D01*
X88618893Y-37801000D01*
X88461107Y-37801000D01*
X88306357Y-37770219D01*
X88160585Y-37709838D01*
X88029389Y-37622176D01*
X87917824Y-37510611D01*
X87830162Y-37379415D01*
X87769781Y-37233643D01*
X87739000Y-37078893D01*
X87739000Y-36921107D01*
X87769781Y-36766357D01*
X87830162Y-36620585D01*
X87917824Y-36489389D01*
X88029389Y-36377824D01*
X88160585Y-36290162D01*
X88306357Y-36229781D01*
X88461107Y-36199000D01*
X88618893Y-36199000D01*
X88773643Y-36229781D01*
X88773643Y-36229781D01*
G37*
G36*
X90803643Y-36229781D02*
X90949415Y-36290162D01*
X91080611Y-36377824D01*
X91192176Y-36489389D01*
X91279838Y-36620585D01*
X91340219Y-36766357D01*
X91371000Y-36921107D01*
X91371000Y-37078893D01*
X91340219Y-37233643D01*
X91279838Y-37379415D01*
X91192176Y-37510611D01*
X91080611Y-37622176D01*
X90949415Y-37709838D01*
X90803643Y-37770219D01*
X90648893Y-37801000D01*
X90491107Y-37801000D01*
X90336357Y-37770219D01*
X90190585Y-37709838D01*
X90059389Y-37622176D01*
X89947824Y-37510611D01*
X89860162Y-37379415D01*
X89799781Y-37233643D01*
X89769000Y-37078893D01*
X89769000Y-36921107D01*
X89799781Y-36766357D01*
X89860162Y-36620585D01*
X89947824Y-36489389D01*
X90059389Y-36377824D01*
X90190585Y-36290162D01*
X90336357Y-36229781D01*
X90491107Y-36199000D01*
X90648893Y-36199000D01*
X90803643Y-36229781D01*
X90803643Y-36229781D01*
G37*
G36*
X93343643Y-36229781D02*
X93489415Y-36290162D01*
X93620611Y-36377824D01*
X93732176Y-36489389D01*
X93819838Y-36620585D01*
X93880219Y-36766357D01*
X93911000Y-36921107D01*
X93911000Y-37078893D01*
X93880219Y-37233643D01*
X93819838Y-37379415D01*
X93732176Y-37510611D01*
X93620611Y-37622176D01*
X93489415Y-37709838D01*
X93343643Y-37770219D01*
X93188893Y-37801000D01*
X93031107Y-37801000D01*
X92876357Y-37770219D01*
X92730585Y-37709838D01*
X92599389Y-37622176D01*
X92487824Y-37510611D01*
X92400162Y-37379415D01*
X92339781Y-37233643D01*
X92309000Y-37078893D01*
X92309000Y-36921107D01*
X92339781Y-36766357D01*
X92400162Y-36620585D01*
X92487824Y-36489389D01*
X92599389Y-36377824D01*
X92730585Y-36290162D01*
X92876357Y-36229781D01*
X93031107Y-36199000D01*
X93188893Y-36199000D01*
X93343643Y-36229781D01*
X93343643Y-36229781D01*
G37*
G36*
X73343643Y-36229781D02*
X73489415Y-36290162D01*
X73620611Y-36377824D01*
X73732176Y-36489389D01*
X73819838Y-36620585D01*
X73880219Y-36766357D01*
X73911000Y-36921107D01*
X73911000Y-37078893D01*
X73880219Y-37233643D01*
X73819838Y-37379415D01*
X73732176Y-37510611D01*
X73620611Y-37622176D01*
X73489415Y-37709838D01*
X73343643Y-37770219D01*
X73188893Y-37801000D01*
X73031107Y-37801000D01*
X72876357Y-37770219D01*
X72730585Y-37709838D01*
X72599389Y-37622176D01*
X72487824Y-37510611D01*
X72400162Y-37379415D01*
X72339781Y-37233643D01*
X72309000Y-37078893D01*
X72309000Y-36921107D01*
X72339781Y-36766357D01*
X72400162Y-36620585D01*
X72487824Y-36489389D01*
X72599389Y-36377824D01*
X72730585Y-36290162D01*
X72876357Y-36229781D01*
X73031107Y-36199000D01*
X73188893Y-36199000D01*
X73343643Y-36229781D01*
X73343643Y-36229781D01*
G37*
G36*
X70803643Y-36229781D02*
X70949415Y-36290162D01*
X71080611Y-36377824D01*
X71192176Y-36489389D01*
X71279838Y-36620585D01*
X71340219Y-36766357D01*
X71371000Y-36921107D01*
X71371000Y-37078893D01*
X71340219Y-37233643D01*
X71279838Y-37379415D01*
X71192176Y-37510611D01*
X71080611Y-37622176D01*
X70949415Y-37709838D01*
X70803643Y-37770219D01*
X70648893Y-37801000D01*
X70491107Y-37801000D01*
X70336357Y-37770219D01*
X70190585Y-37709838D01*
X70059389Y-37622176D01*
X69947824Y-37510611D01*
X69860162Y-37379415D01*
X69799781Y-37233643D01*
X69769000Y-37078893D01*
X69769000Y-36921107D01*
X69799781Y-36766357D01*
X69860162Y-36620585D01*
X69947824Y-36489389D01*
X70059389Y-36377824D01*
X70190585Y-36290162D01*
X70336357Y-36229781D01*
X70491107Y-36199000D01*
X70648893Y-36199000D01*
X70803643Y-36229781D01*
X70803643Y-36229781D01*
G37*
G36*
X83306565Y-31989389D02*
X83497834Y-32068615D01*
X83669976Y-32183637D01*
X83816363Y-32330024D01*
X83931385Y-32502166D01*
X84010611Y-32693435D01*
X84051000Y-32896484D01*
X84051000Y-33103516D01*
X84010611Y-33306565D01*
X83931385Y-33497834D01*
X83816363Y-33669976D01*
X83669976Y-33816363D01*
X83497834Y-33931385D01*
X83306565Y-34010611D01*
X83103516Y-34051000D01*
X82896484Y-34051000D01*
X82693435Y-34010611D01*
X82502166Y-33931385D01*
X82330024Y-33816363D01*
X82183637Y-33669976D01*
X82068615Y-33497834D01*
X81989389Y-33306565D01*
X81949000Y-33103516D01*
X81949000Y-32896484D01*
X81989389Y-32693435D01*
X82068615Y-32502166D01*
X82183637Y-32330024D01*
X82330024Y-32183637D01*
X82502166Y-32068615D01*
X82693435Y-31989389D01*
X82896484Y-31949000D01*
X83103516Y-31949000D01*
X83306565Y-31989389D01*
X83306565Y-31989389D01*
G37*
G36*
X93101000Y-32851000D02*
X89499000Y-32851000D01*
X89499000Y-31149000D01*
X93101000Y-31149000D01*
X93101000Y-32851000D01*
X93101000Y-32851000D01*
G37*
G36*
X98501000Y-32851000D02*
X94899000Y-32851000D01*
X94899000Y-31149000D01*
X98501000Y-31149000D01*
X98501000Y-32851000D01*
X98501000Y-32851000D01*
G37*
G36*
X78501000Y-32851000D02*
X74899000Y-32851000D01*
X74899000Y-31149000D01*
X78501000Y-31149000D01*
X78501000Y-32851000D01*
X78501000Y-32851000D01*
G37*
G36*
X73101000Y-32851000D02*
X69499000Y-32851000D01*
X69499000Y-31149000D01*
X73101000Y-31149000D01*
X73101000Y-32851000D01*
X73101000Y-32851000D01*
G37*
G36*
X44101000Y-32851000D02*
X40499000Y-32851000D01*
X40499000Y-31149000D01*
X44101000Y-31149000D01*
X44101000Y-32851000D01*
X44101000Y-32851000D01*
G37*
G36*
X49501000Y-32851000D02*
X45899000Y-32851000D01*
X45899000Y-31149000D01*
X49501000Y-31149000D01*
X49501000Y-32851000D01*
X49501000Y-32851000D01*
G37*
G36*
X29501000Y-32851000D02*
X25899000Y-32851000D01*
X25899000Y-31149000D01*
X29501000Y-31149000D01*
X29501000Y-32851000D01*
X29501000Y-32851000D01*
G37*
G36*
X24101000Y-32851000D02*
X20499000Y-32851000D01*
X20499000Y-31149000D01*
X24101000Y-31149000D01*
X24101000Y-32851000D01*
X24101000Y-32851000D01*
G37*
G36*
X22306565Y-25989389D02*
X22497834Y-26068615D01*
X22669976Y-26183637D01*
X22816363Y-26330024D01*
X22931385Y-26502166D01*
X23010611Y-26693435D01*
X23051000Y-26896484D01*
X23051000Y-27103516D01*
X23010611Y-27306565D01*
X22931385Y-27497834D01*
X22816363Y-27669976D01*
X22669976Y-27816363D01*
X22497834Y-27931385D01*
X22306565Y-28010611D01*
X22103516Y-28051000D01*
X21896484Y-28051000D01*
X21693435Y-28010611D01*
X21502166Y-27931385D01*
X21330024Y-27816363D01*
X21183637Y-27669976D01*
X21068615Y-27497834D01*
X20989389Y-27306565D01*
X20949000Y-27103516D01*
X20949000Y-26896484D01*
X20989389Y-26693435D01*
X21068615Y-26502166D01*
X21183637Y-26330024D01*
X21330024Y-26183637D01*
X21502166Y-26068615D01*
X21693435Y-25989389D01*
X21896484Y-25949000D01*
X22103516Y-25949000D01*
X22306565Y-25989389D01*
X22306565Y-25989389D01*
G37*
G36*
X97259999Y-25449737D02*
X97269611Y-25452653D01*
X97278469Y-25457388D01*
X97286237Y-25463763D01*
X97292612Y-25471531D01*
X97297347Y-25480389D01*
X97300263Y-25490001D01*
X97301852Y-25506140D01*
X97301852Y-26493860D01*
X97300263Y-26509999D01*
X97297347Y-26519611D01*
X97292612Y-26528469D01*
X97292610Y-26528471D01*
X97286237Y-26536237D01*
X97278427Y-26542640D01*
X97278378Y-26542673D01*
X97268850Y-26550484D01*
X97268875Y-26550514D01*
X97255026Y-26561857D01*
X97239462Y-26580783D01*
X97227889Y-26602382D01*
X97220752Y-26625824D01*
X97218326Y-26650208D01*
X97220704Y-26674597D01*
X97227793Y-26698053D01*
X97239323Y-26719676D01*
X97254850Y-26738633D01*
X97269234Y-26749324D01*
X97269007Y-26749600D01*
X97278511Y-26757416D01*
X97278516Y-26757419D01*
X97286275Y-26763801D01*
X97286279Y-26763805D01*
X97292640Y-26771572D01*
X97297368Y-26780440D01*
X97300282Y-26790082D01*
X97301852Y-26806112D01*
X97301852Y-27943860D01*
X97300263Y-27959999D01*
X97297347Y-27969611D01*
X97292612Y-27978469D01*
X97286237Y-27986237D01*
X97278469Y-27992612D01*
X97269611Y-27997347D01*
X97259999Y-28000263D01*
X97243860Y-28001852D01*
X95756140Y-28001852D01*
X95740001Y-28000263D01*
X95730389Y-27997347D01*
X95721531Y-27992612D01*
X95713763Y-27986237D01*
X95707388Y-27978469D01*
X95702653Y-27969611D01*
X95699737Y-27959999D01*
X95698148Y-27943860D01*
X95698148Y-26806140D01*
X95699737Y-26790001D01*
X95702653Y-26780389D01*
X95707388Y-26771531D01*
X95713763Y-26763763D01*
X95726736Y-26753116D01*
X95735959Y-26746954D01*
X95753287Y-26729627D01*
X95766901Y-26709253D01*
X95776279Y-26686614D01*
X95781061Y-26662581D01*
X95781061Y-26638077D01*
X95776282Y-26614043D01*
X95766905Y-26591404D01*
X95753292Y-26571029D01*
X95735965Y-26553701D01*
X95726673Y-26546817D01*
X95713805Y-26536279D01*
X95713801Y-26536275D01*
X95707419Y-26528516D01*
X95702674Y-26519661D01*
X95699748Y-26510050D01*
X95698753Y-26500000D01*
X95698753Y-26499934D01*
X95698148Y-26493825D01*
X95698148Y-25506140D01*
X95699737Y-25490001D01*
X95702653Y-25480389D01*
X95707388Y-25471531D01*
X95713763Y-25463763D01*
X95721531Y-25457388D01*
X95730389Y-25452653D01*
X95740001Y-25449737D01*
X95756140Y-25448148D01*
X97243860Y-25448148D01*
X97259999Y-25449737D01*
X97259999Y-25449737D01*
G37*
G36*
X57176000Y-27501000D02*
X56474000Y-27501000D01*
X56474000Y-25899000D01*
X57176000Y-25899000D01*
X57176000Y-27501000D01*
X57176000Y-27501000D01*
G37*
G36*
X64796000Y-27501000D02*
X64094000Y-27501000D01*
X64094000Y-25899000D01*
X64796000Y-25899000D01*
X64796000Y-27501000D01*
X64796000Y-27501000D01*
G37*
G36*
X63526000Y-27501000D02*
X62824000Y-27501000D01*
X62824000Y-25899000D01*
X63526000Y-25899000D01*
X63526000Y-27501000D01*
X63526000Y-27501000D01*
G37*
G36*
X62256000Y-27501000D02*
X61554000Y-27501000D01*
X61554000Y-25899000D01*
X62256000Y-25899000D01*
X62256000Y-27501000D01*
X62256000Y-27501000D01*
G37*
G36*
X60986000Y-27501000D02*
X60284000Y-27501000D01*
X60284000Y-25899000D01*
X60986000Y-25899000D01*
X60986000Y-27501000D01*
X60986000Y-27501000D01*
G37*
G36*
X59716000Y-27501000D02*
X59014000Y-27501000D01*
X59014000Y-25899000D01*
X59716000Y-25899000D01*
X59716000Y-27501000D01*
X59716000Y-27501000D01*
G37*
G36*
X58446000Y-27501000D02*
X57744000Y-27501000D01*
X57744000Y-25899000D01*
X58446000Y-25899000D01*
X58446000Y-27501000D01*
X58446000Y-27501000D01*
G37*
G36*
X55906000Y-27501000D02*
X55204000Y-27501000D01*
X55204000Y-25899000D01*
X55906000Y-25899000D01*
X55906000Y-27501000D01*
X55906000Y-27501000D01*
G37*
G36*
X47701000Y-24926000D02*
X46399000Y-24926000D01*
X46399000Y-24074000D01*
X47701000Y-24074000D01*
X47701000Y-24926000D01*
X47701000Y-24926000D01*
G37*
G36*
X49601000Y-24926000D02*
X48299000Y-24926000D01*
X48299000Y-24074000D01*
X49601000Y-24074000D01*
X49601000Y-24926000D01*
X49601000Y-24926000D01*
G37*
G36*
X90601000Y-24501000D02*
X88499000Y-24501000D01*
X88499000Y-21899000D01*
X90601000Y-21899000D01*
X90601000Y-24501000D01*
X90601000Y-24501000D01*
G37*
G36*
X95901000Y-24501000D02*
X92099000Y-24501000D01*
X92099000Y-22099000D01*
X95901000Y-22099000D01*
X95901000Y-24501000D01*
X95901000Y-24501000D01*
G37*
G36*
X99501000Y-24501000D02*
X97399000Y-24501000D01*
X97399000Y-21899000D01*
X99501000Y-21899000D01*
X99501000Y-24501000D01*
X99501000Y-24501000D01*
G37*
G36*
X76150443Y-22605519D02*
X76216627Y-22612037D01*
X76329853Y-22646384D01*
X76386467Y-22663557D01*
X76525087Y-22737652D01*
X76542991Y-22747222D01*
X76578729Y-22776552D01*
X76680186Y-22859814D01*
X76763448Y-22961271D01*
X76792778Y-22997009D01*
X76792779Y-22997011D01*
X76876443Y-23153533D01*
X76876443Y-23153534D01*
X76927963Y-23323373D01*
X76945359Y-23500000D01*
X76927963Y-23676627D01*
X76893616Y-23789853D01*
X76876443Y-23846467D01*
X76802348Y-23985087D01*
X76792778Y-24002991D01*
X76763448Y-24038729D01*
X76680186Y-24140186D01*
X76578729Y-24223448D01*
X76542991Y-24252778D01*
X76542989Y-24252779D01*
X76386467Y-24336443D01*
X76329853Y-24353616D01*
X76216627Y-24387963D01*
X76150443Y-24394481D01*
X76084260Y-24401000D01*
X75995740Y-24401000D01*
X75929557Y-24394481D01*
X75863373Y-24387963D01*
X75750147Y-24353616D01*
X75693533Y-24336443D01*
X75537011Y-24252779D01*
X75537009Y-24252778D01*
X75501271Y-24223448D01*
X75399814Y-24140186D01*
X75316552Y-24038729D01*
X75287222Y-24002991D01*
X75277652Y-23985087D01*
X75203557Y-23846467D01*
X75186384Y-23789853D01*
X75152037Y-23676627D01*
X75134641Y-23500000D01*
X75152037Y-23323373D01*
X75203557Y-23153534D01*
X75203557Y-23153533D01*
X75287221Y-22997011D01*
X75287222Y-22997009D01*
X75316552Y-22961271D01*
X75399814Y-22859814D01*
X75501271Y-22776552D01*
X75537009Y-22747222D01*
X75554913Y-22737652D01*
X75693533Y-22663557D01*
X75750147Y-22646384D01*
X75863373Y-22612037D01*
X75929557Y-22605519D01*
X75995740Y-22599000D01*
X76084260Y-22599000D01*
X76150443Y-22605519D01*
X76150443Y-22605519D01*
G37*
G36*
X74401000Y-24401000D02*
X72599000Y-24401000D01*
X72599000Y-22599000D01*
X74401000Y-22599000D01*
X74401000Y-24401000D01*
X74401000Y-24401000D01*
G37*
G36*
X49651000Y-23601000D02*
X47449000Y-23601000D01*
X47449000Y-21699000D01*
X49651000Y-21699000D01*
X49651000Y-23601000D01*
X49651000Y-23601000D01*
G37*
G36*
X52551000Y-23601000D02*
X50349000Y-23601000D01*
X50349000Y-21699000D01*
X52551000Y-21699000D01*
X52551000Y-23601000D01*
X52551000Y-23601000D01*
G37*
G36*
X63526000Y-22101000D02*
X62824000Y-22101000D01*
X62824000Y-20499000D01*
X63526000Y-20499000D01*
X63526000Y-22101000D01*
X63526000Y-22101000D01*
G37*
G36*
X62256000Y-22101000D02*
X61554000Y-22101000D01*
X61554000Y-20499000D01*
X62256000Y-20499000D01*
X62256000Y-22101000D01*
X62256000Y-22101000D01*
G37*
G36*
X60986000Y-22101000D02*
X60284000Y-22101000D01*
X60284000Y-20499000D01*
X60986000Y-20499000D01*
X60986000Y-22101000D01*
X60986000Y-22101000D01*
G37*
G36*
X59716000Y-22101000D02*
X59014000Y-22101000D01*
X59014000Y-20499000D01*
X59716000Y-20499000D01*
X59716000Y-22101000D01*
X59716000Y-22101000D01*
G37*
G36*
X58446000Y-22101000D02*
X57744000Y-22101000D01*
X57744000Y-20499000D01*
X58446000Y-20499000D01*
X58446000Y-22101000D01*
X58446000Y-22101000D01*
G37*
G36*
X57176000Y-22101000D02*
X56474000Y-22101000D01*
X56474000Y-20499000D01*
X57176000Y-20499000D01*
X57176000Y-22101000D01*
X57176000Y-22101000D01*
G37*
G36*
X55906000Y-22101000D02*
X55204000Y-22101000D01*
X55204000Y-20499000D01*
X55906000Y-20499000D01*
X55906000Y-22101000D01*
X55906000Y-22101000D01*
G37*
G36*
X64796000Y-22101000D02*
X64094000Y-22101000D01*
X64094000Y-20499000D01*
X64796000Y-20499000D01*
X64796000Y-22101000D01*
X64796000Y-22101000D01*
G37*
G36*
X52551000Y-21301000D02*
X50349000Y-21301000D01*
X50349000Y-19399000D01*
X52551000Y-19399000D01*
X52551000Y-21301000D01*
X52551000Y-21301000D01*
G37*
G36*
X49651000Y-21301000D02*
X47449000Y-21301000D01*
X47449000Y-19399000D01*
X49651000Y-19399000D01*
X49651000Y-21301000D01*
X49651000Y-21301000D01*
G37*
G36*
X96346136Y-20218253D02*
X96437312Y-20256019D01*
X96519372Y-20310850D01*
X96589150Y-20380628D01*
X96643981Y-20462688D01*
X96681747Y-20553864D01*
X96701000Y-20650656D01*
X96701000Y-20749344D01*
X96681747Y-20846136D01*
X96643981Y-20937312D01*
X96589150Y-21019372D01*
X96519372Y-21089150D01*
X96437312Y-21143981D01*
X96346136Y-21181747D01*
X96249344Y-21201000D01*
X96150656Y-21201000D01*
X96053864Y-21181747D01*
X95962688Y-21143981D01*
X95880628Y-21089150D01*
X95810850Y-21019372D01*
X95756019Y-20937312D01*
X95718253Y-20846136D01*
X95699000Y-20749344D01*
X95699000Y-20650656D01*
X95718253Y-20553864D01*
X95756019Y-20462688D01*
X95810850Y-20380628D01*
X95880628Y-20310850D01*
X95962688Y-20256019D01*
X96053864Y-20218253D01*
X96150656Y-20199000D01*
X96249344Y-20199000D01*
X96346136Y-20218253D01*
X96346136Y-20218253D01*
G37*
G36*
X91946136Y-20218253D02*
X92037312Y-20256019D01*
X92119372Y-20310850D01*
X92189150Y-20380628D01*
X92243981Y-20462688D01*
X92281747Y-20553864D01*
X92301000Y-20650656D01*
X92301000Y-20749344D01*
X92281747Y-20846136D01*
X92243981Y-20937312D01*
X92189150Y-21019372D01*
X92119372Y-21089150D01*
X92037312Y-21143981D01*
X91946136Y-21181747D01*
X91849344Y-21201000D01*
X91750656Y-21201000D01*
X91653864Y-21181747D01*
X91562688Y-21143981D01*
X91480628Y-21089150D01*
X91410850Y-21019372D01*
X91356019Y-20937312D01*
X91318253Y-20846136D01*
X91299000Y-20749344D01*
X91299000Y-20650656D01*
X91318253Y-20553864D01*
X91356019Y-20462688D01*
X91410850Y-20380628D01*
X91480628Y-20310850D01*
X91562688Y-20256019D01*
X91653864Y-20218253D01*
X91750656Y-20199000D01*
X91849344Y-20199000D01*
X91946136Y-20218253D01*
X91946136Y-20218253D01*
G37*
G36*
X62426000Y-20101000D02*
X61574000Y-20101000D01*
X61574000Y-18799000D01*
X62426000Y-18799000D01*
X62426000Y-20101000D01*
X62426000Y-20101000D01*
G37*
G36*
X59926000Y-20101000D02*
X59074000Y-20101000D01*
X59074000Y-18799000D01*
X59926000Y-18799000D01*
X59926000Y-20101000D01*
X59926000Y-20101000D01*
G37*
G36*
X58426000Y-20101000D02*
X57574000Y-20101000D01*
X57574000Y-18799000D01*
X58426000Y-18799000D01*
X58426000Y-20101000D01*
X58426000Y-20101000D01*
G37*
G36*
X99501000Y-19001000D02*
X97399000Y-19001000D01*
X97399000Y-16399000D01*
X99501000Y-16399000D01*
X99501000Y-19001000D01*
X99501000Y-19001000D01*
G37*
G36*
X90601000Y-19001000D02*
X88499000Y-19001000D01*
X88499000Y-16399000D01*
X90601000Y-16399000D01*
X90601000Y-19001000D01*
X90601000Y-19001000D01*
G37*
G36*
X52101000Y-18926000D02*
X50799000Y-18926000D01*
X50799000Y-18074000D01*
X52101000Y-18074000D01*
X52101000Y-18926000D01*
X52101000Y-18926000D01*
G37*
G36*
X50201000Y-18926000D02*
X48899000Y-18926000D01*
X48899000Y-18074000D01*
X50201000Y-18074000D01*
X50201000Y-18926000D01*
X50201000Y-18926000D01*
G37*
G36*
X62426000Y-18201000D02*
X61574000Y-18201000D01*
X61574000Y-16899000D01*
X62426000Y-16899000D01*
X62426000Y-18201000D01*
X62426000Y-18201000D01*
G37*
G36*
X59926000Y-18201000D02*
X59074000Y-18201000D01*
X59074000Y-16899000D01*
X59926000Y-16899000D01*
X59926000Y-18201000D01*
X59926000Y-18201000D01*
G37*
G36*
X58426000Y-18201000D02*
X57574000Y-18201000D01*
X57574000Y-16899000D01*
X58426000Y-16899000D01*
X58426000Y-18201000D01*
X58426000Y-18201000D01*
G37*
G36*
X86306565Y-15989389D02*
X86497834Y-16068615D01*
X86669976Y-16183637D01*
X86816363Y-16330024D01*
X86931385Y-16502166D01*
X87010611Y-16693435D01*
X87051000Y-16896484D01*
X87051000Y-17103516D01*
X87010611Y-17306565D01*
X86931385Y-17497834D01*
X86816363Y-17669976D01*
X86669976Y-17816363D01*
X86497834Y-17931385D01*
X86306565Y-18010611D01*
X86103516Y-18051000D01*
X85896484Y-18051000D01*
X85693435Y-18010611D01*
X85502166Y-17931385D01*
X85330024Y-17816363D01*
X85183637Y-17669976D01*
X85068615Y-17497834D01*
X84989389Y-17306565D01*
X84949000Y-17103516D01*
X84949000Y-16896484D01*
X84989389Y-16693435D01*
X85068615Y-16502166D01*
X85183637Y-16330024D01*
X85330024Y-16183637D01*
X85502166Y-16068615D01*
X85693435Y-15989389D01*
X85896484Y-15949000D01*
X86103516Y-15949000D01*
X86306565Y-15989389D01*
X86306565Y-15989389D01*
G37*
G36*
X22306565Y-15989389D02*
X22497834Y-16068615D01*
X22669976Y-16183637D01*
X22816363Y-16330024D01*
X22931385Y-16502166D01*
X23010611Y-16693435D01*
X23051000Y-16896484D01*
X23051000Y-17103516D01*
X23010611Y-17306565D01*
X22931385Y-17497834D01*
X22816363Y-17669976D01*
X22669976Y-17816363D01*
X22497834Y-17931385D01*
X22306565Y-18010611D01*
X22103516Y-18051000D01*
X21896484Y-18051000D01*
X21693435Y-18010611D01*
X21502166Y-17931385D01*
X21330024Y-17816363D01*
X21183637Y-17669976D01*
X21068615Y-17497834D01*
X20989389Y-17306565D01*
X20949000Y-17103516D01*
X20949000Y-16896484D01*
X20989389Y-16693435D01*
X21068615Y-16502166D01*
X21183637Y-16330024D01*
X21330024Y-16183637D01*
X21502166Y-16068615D01*
X21693435Y-15989389D01*
X21896484Y-15949000D01*
X22103516Y-15949000D01*
X22306565Y-15989389D01*
X22306565Y-15989389D01*
G37*
M02*
