M48
;DRILL file {KiCad (5.0.1-3-g963ef8bb5)} date Sunday, November 25, 2018 at 03:23:08 PM
;FORMAT={-:-/ absolute / inch / decimal}
FMAT,2
INCH,TZ
T1C0.0157
T2C0.0394
T3C0.0787
T4C0.0906
%
G90
G05
M72
T1
X1.5551Y-1.2992
X2.5197Y-0.6693
X3.1299Y-1.2598
X3.4252Y-0.8465
X3.8583Y-1.1811
T2
X1.811Y-1.4567
X1.911Y-1.4567
X1.9909Y-1.4567
X2.0909Y-1.4567
X1.0236Y-1.4567
X1.1236Y-1.4567
X1.2035Y-1.4567
X1.3035Y-1.4567
X2.8937Y-0.9252
X2.9937Y-0.9252
X2.5984Y-1.4567
X2.6984Y-1.4567
X2.7783Y-1.4567
X2.8783Y-1.4567
X3.3858Y-1.4567
X3.4858Y-1.4567
X3.5657Y-1.4567
X3.6657Y-1.4567
T3
X3.2677Y-1.2992
X0.8661Y-1.063
X0.8661Y-0.6693
X3.3858Y-0.6693
T4
X2.4583Y-1.5618
X2.9984Y-1.5618
X3.7858Y-1.5618
X1.6709Y-1.5618
X2.211Y-1.5618
X0.8835Y-1.5618
X1.4236Y-1.5618
X3.2457Y-1.5618
T0
M30
