G04 #@! TF.GenerationSoftware,KiCad,Pcbnew,(5.0.1-3-g963ef8bb5)*
G04 #@! TF.CreationDate,2018-11-25T15:23:06-05:00*
G04 #@! TF.ProjectId,usb-hub,7573622D6875622E6B696361645F7063,rev?*
G04 #@! TF.SameCoordinates,Original*
G04 #@! TF.FileFunction,Copper,L1,Top,Signal*
G04 #@! TF.FilePolarity,Positive*
%FSLAX46Y46*%
G04 Gerber Fmt 4.6, Leading zero omitted, Abs format (unit mm)*
G04 Created by KiCad (PCBNEW (5.0.1-3-g963ef8bb5)) date Sunday, November 25, 2018 at 03:23:06 PM*
%MOMM*%
%LPD*%
G01*
G04 APERTURE LIST*
G04 #@! TA.AperFunction,ComponentPad*
%ADD10C,2.000000*%
G04 #@! TD*
G04 #@! TA.AperFunction,SMDPad,CuDef*
%ADD11R,1.200000X0.750000*%
G04 #@! TD*
G04 #@! TA.AperFunction,SMDPad,CuDef*
%ADD12R,0.750000X1.200000*%
G04 #@! TD*
G04 #@! TA.AperFunction,SMDPad,CuDef*
%ADD13R,3.500000X1.600000*%
G04 #@! TD*
G04 #@! TA.AperFunction,SMDPad,CuDef*
%ADD14R,2.000000X2.500000*%
G04 #@! TD*
G04 #@! TA.AperFunction,SMDPad,CuDef*
%ADD15R,0.500000X2.300000*%
G04 #@! TD*
G04 #@! TA.AperFunction,ComponentPad*
%ADD16O,1.700000X1.700000*%
G04 #@! TD*
G04 #@! TA.AperFunction,ComponentPad*
%ADD17R,1.700000X1.700000*%
G04 #@! TD*
G04 #@! TA.AperFunction,ComponentPad*
%ADD18C,3.000000*%
G04 #@! TD*
G04 #@! TA.AperFunction,ComponentPad*
%ADD19C,1.500000*%
G04 #@! TD*
G04 #@! TA.AperFunction,SMDPad,CuDef*
%ADD20C,0.300000*%
G04 #@! TD*
G04 #@! TA.AperFunction,Conductor*
%ADD21C,0.100000*%
G04 #@! TD*
G04 #@! TA.AperFunction,SMDPad,CuDef*
%ADD22R,0.600000X1.500000*%
G04 #@! TD*
G04 #@! TA.AperFunction,SMDPad,CuDef*
%ADD23R,2.100000X1.800000*%
G04 #@! TD*
G04 #@! TA.AperFunction,ViaPad*
%ADD24C,0.800000*%
G04 #@! TD*
G04 #@! TA.AperFunction,Conductor*
%ADD25C,0.250000*%
G04 #@! TD*
G04 #@! TA.AperFunction,Conductor*
%ADD26C,0.200000*%
G04 #@! TD*
G04 APERTURE END LIST*
D10*
G04 #@! TO.P,REF\002A\002A,1*
G04 #@! TO.N,N/C*
X86000000Y-17000000D03*
G04 #@! TD*
G04 #@! TO.P,REF\002A\002A,1*
G04 #@! TO.N,N/C*
X83000000Y-33000000D03*
G04 #@! TD*
G04 #@! TO.P,REF\002A\002A,1*
G04 #@! TO.N,N/C*
X22000000Y-27000000D03*
G04 #@! TD*
D11*
G04 #@! TO.P,C1,1*
G04 #@! TO.N,GND*
X47050000Y-24500000D03*
G04 #@! TO.P,C1,2*
G04 #@! TO.N,Net-(C1-Pad2)*
X48950000Y-24500000D03*
G04 #@! TD*
D12*
G04 #@! TO.P,C2,2*
G04 #@! TO.N,GND*
X58000000Y-17550000D03*
G04 #@! TO.P,C2,1*
G04 #@! TO.N,Net-(C2-Pad1)*
X58000000Y-19450000D03*
G04 #@! TD*
G04 #@! TO.P,C3,1*
G04 #@! TO.N,GND*
X62000000Y-17550000D03*
G04 #@! TO.P,C3,2*
G04 #@! TO.N,+5V*
X62000000Y-19450000D03*
G04 #@! TD*
G04 #@! TO.P,C4,2*
G04 #@! TO.N,Net-(C4-Pad2)*
X59500000Y-19450000D03*
G04 #@! TO.P,C4,1*
G04 #@! TO.N,GND*
X59500000Y-17550000D03*
G04 #@! TD*
D11*
G04 #@! TO.P,C5,2*
G04 #@! TO.N,Net-(C5-Pad2)*
X51450000Y-18500000D03*
G04 #@! TO.P,C5,1*
G04 #@! TO.N,GND*
X49550000Y-18500000D03*
G04 #@! TD*
D13*
G04 #@! TO.P,C6,1*
G04 #@! TO.N,+5V*
X91300000Y-32000000D03*
G04 #@! TO.P,C6,2*
G04 #@! TO.N,GND*
X96700000Y-32000000D03*
G04 #@! TD*
G04 #@! TO.P,C7,2*
G04 #@! TO.N,GND*
X76700000Y-32000000D03*
G04 #@! TO.P,C7,1*
G04 #@! TO.N,+5V*
X71300000Y-32000000D03*
G04 #@! TD*
G04 #@! TO.P,C8,2*
G04 #@! TO.N,GND*
X42300000Y-32000000D03*
G04 #@! TO.P,C8,1*
G04 #@! TO.N,+5V*
X47700000Y-32000000D03*
G04 #@! TD*
G04 #@! TO.P,C9,1*
G04 #@! TO.N,+5V*
X27700000Y-32000000D03*
G04 #@! TO.P,C9,2*
G04 #@! TO.N,GND*
X22300000Y-32000000D03*
G04 #@! TD*
D14*
G04 #@! TO.P,J1,6*
G04 #@! TO.N,GND*
X89550000Y-17700000D03*
X89550000Y-23200000D03*
X98450000Y-17700000D03*
X98450000Y-23200000D03*
D15*
G04 #@! TO.P,J1,5*
X92400000Y-23300000D03*
G04 #@! TO.P,J1,4*
G04 #@! TO.N,Net-(J1-Pad4)*
X93200000Y-23300000D03*
G04 #@! TO.P,J1,3*
G04 #@! TO.N,/DP*
X94000000Y-23300000D03*
G04 #@! TO.P,J1,2*
G04 #@! TO.N,/DN*
X94800000Y-23300000D03*
G04 #@! TO.P,J1,1*
G04 #@! TO.N,Net-(J1-Pad1)*
X95600000Y-23300000D03*
G04 #@! TD*
D16*
G04 #@! TO.P,J2,2*
G04 #@! TO.N,GND*
X76040000Y-23500000D03*
D17*
G04 #@! TO.P,J2,1*
G04 #@! TO.N,+5V*
X73500000Y-23500000D03*
G04 #@! TD*
D18*
G04 #@! TO.P,J3,5*
G04 #@! TO.N,GND*
X82440000Y-39670000D03*
X96160000Y-39670000D03*
D19*
G04 #@! TO.P,J3,1*
G04 #@! TO.N,+5V*
X86000000Y-37000000D03*
G04 #@! TO.P,J3,2*
G04 #@! TO.N,D1_N*
X88540000Y-37000000D03*
G04 #@! TO.P,J3,3*
G04 #@! TO.N,D1_P*
X90570000Y-37000000D03*
G04 #@! TO.P,J3,4*
G04 #@! TO.N,GND*
X93110000Y-37000000D03*
G04 #@! TD*
G04 #@! TO.P,J4,4*
G04 #@! TO.N,GND*
X73110000Y-37000000D03*
G04 #@! TO.P,J4,3*
G04 #@! TO.N,D2_P*
X70570000Y-37000000D03*
G04 #@! TO.P,J4,2*
G04 #@! TO.N,D2_N*
X68540000Y-37000000D03*
G04 #@! TO.P,J4,1*
G04 #@! TO.N,+5V*
X66000000Y-37000000D03*
D18*
G04 #@! TO.P,J4,5*
G04 #@! TO.N,GND*
X76160000Y-39670000D03*
X62440000Y-39670000D03*
G04 #@! TD*
D19*
G04 #@! TO.P,J5,4*
G04 #@! TO.N,GND*
X53110000Y-37000000D03*
G04 #@! TO.P,J5,3*
G04 #@! TO.N,D3_P*
X50570000Y-37000000D03*
G04 #@! TO.P,J5,2*
G04 #@! TO.N,D3_N*
X48540000Y-37000000D03*
G04 #@! TO.P,J5,1*
G04 #@! TO.N,+5V*
X46000000Y-37000000D03*
D18*
G04 #@! TO.P,J5,5*
G04 #@! TO.N,GND*
X56160000Y-39670000D03*
X42440000Y-39670000D03*
G04 #@! TD*
G04 #@! TO.P,J6,5*
G04 #@! TO.N,GND*
X22440000Y-39670000D03*
X36160000Y-39670000D03*
D19*
G04 #@! TO.P,J6,1*
G04 #@! TO.N,+5V*
X26000000Y-37000000D03*
G04 #@! TO.P,J6,2*
G04 #@! TO.N,D4_N*
X28540000Y-37000000D03*
G04 #@! TO.P,J6,3*
G04 #@! TO.N,D4_P*
X30570000Y-37000000D03*
G04 #@! TO.P,J6,4*
G04 #@! TO.N,GND*
X33110000Y-37000000D03*
G04 #@! TD*
D20*
G04 #@! TO.P,JP1,2*
G04 #@! TO.N,+5V*
X96500000Y-27450000D03*
D21*
G04 #@! TD*
G04 #@! TO.N,+5V*
G04 #@! TO.C,JP1*
G36*
X95750000Y-27950000D02*
X95750000Y-26800000D01*
X96500000Y-27300000D01*
X97250000Y-26800000D01*
X97250000Y-27950000D01*
X95750000Y-27950000D01*
X95750000Y-27950000D01*
G37*
D20*
G04 #@! TO.P,JP1,1*
G04 #@! TO.N,Net-(J1-Pad1)*
X96500000Y-26000000D03*
D21*
G04 #@! TD*
G04 #@! TO.N,Net-(J1-Pad1)*
G04 #@! TO.C,JP1*
G36*
X96500000Y-27000000D02*
X95750000Y-26500000D01*
X95750000Y-25500000D01*
X97250000Y-25500000D01*
X97250000Y-26500000D01*
X96500000Y-27000000D01*
X96500000Y-27000000D01*
G37*
D22*
G04 #@! TO.P,U1,16*
G04 #@! TO.N,Net-(C5-Pad2)*
X55555000Y-21300000D03*
G04 #@! TO.P,U1,15*
G04 #@! TO.N,Net-(C1-Pad2)*
X56825000Y-21300000D03*
G04 #@! TO.P,U1,14*
G04 #@! TO.N,Net-(C2-Pad1)*
X58095000Y-21300000D03*
G04 #@! TO.P,U1,13*
G04 #@! TO.N,Net-(C4-Pad2)*
X59365000Y-21300000D03*
G04 #@! TO.P,U1,12*
G04 #@! TO.N,GND*
X60635000Y-21300000D03*
G04 #@! TO.P,U1,11*
G04 #@! TO.N,+5V*
X61905000Y-21300000D03*
G04 #@! TO.P,U1,10*
G04 #@! TO.N,/DP*
X63175000Y-21300000D03*
G04 #@! TO.P,U1,9*
G04 #@! TO.N,/DN*
X64445000Y-21300000D03*
G04 #@! TO.P,U1,8*
G04 #@! TO.N,D1_P*
X64445000Y-26700000D03*
G04 #@! TO.P,U1,7*
G04 #@! TO.N,D1_N*
X63175000Y-26700000D03*
G04 #@! TO.P,U1,6*
G04 #@! TO.N,D2_P*
X61905000Y-26700000D03*
G04 #@! TO.P,U1,5*
G04 #@! TO.N,D2_N*
X60635000Y-26700000D03*
G04 #@! TO.P,U1,4*
G04 #@! TO.N,D3_P*
X59365000Y-26700000D03*
G04 #@! TO.P,U1,3*
G04 #@! TO.N,D3_N*
X58095000Y-26700000D03*
G04 #@! TO.P,U1,2*
G04 #@! TO.N,D4_P*
X56825000Y-26700000D03*
G04 #@! TO.P,U1,1*
G04 #@! TO.N,D4_N*
X55555000Y-26700000D03*
G04 #@! TD*
D23*
G04 #@! TO.P,Y1,1*
G04 #@! TO.N,Net-(C1-Pad2)*
X48550000Y-22650000D03*
G04 #@! TO.P,Y1,2*
G04 #@! TO.N,Net-(Y1-Pad2)*
X51450000Y-22650000D03*
G04 #@! TO.P,Y1,3*
G04 #@! TO.N,Net-(C5-Pad2)*
X51450000Y-20350000D03*
G04 #@! TO.P,Y1,4*
G04 #@! TO.N,Net-(Y1-Pad4)*
X48550000Y-20350000D03*
G04 #@! TD*
D10*
G04 #@! TO.P,REF\002A\002A,1*
G04 #@! TO.N,N/C*
X22000000Y-17000000D03*
G04 #@! TD*
D24*
G04 #@! TO.N,GND*
X39500000Y-33000000D03*
X79500000Y-32000000D03*
X98000000Y-30000000D03*
X87000000Y-21500000D03*
X64000000Y-17000000D03*
G04 #@! TD*
D25*
G04 #@! TO.N,Net-(C1-Pad2)*
X48550000Y-24100000D02*
X48950000Y-24500000D01*
X48550000Y-22650000D02*
X48550000Y-24100000D01*
X56825000Y-21750000D02*
X56825000Y-21300000D01*
X54075000Y-24500000D02*
X56825000Y-21750000D01*
X48950000Y-24500000D02*
X54075000Y-24500000D01*
G04 #@! TO.N,GND*
X39500000Y-32800000D02*
X39500000Y-33000000D01*
X40300000Y-32000000D02*
X39500000Y-32800000D01*
X42300000Y-32000000D02*
X40300000Y-32000000D01*
X22300000Y-39530000D02*
X22440000Y-39670000D01*
X22300000Y-32000000D02*
X22300000Y-39530000D01*
X78700000Y-32000000D02*
X79500000Y-32000000D01*
X76700000Y-32000000D02*
X78700000Y-32000000D01*
X97650000Y-30000000D02*
X98000000Y-30000000D01*
X96700000Y-30950000D02*
X97650000Y-30000000D01*
X96700000Y-32000000D02*
X96700000Y-30950000D01*
X58000000Y-17550000D02*
X59500000Y-17550000D01*
X59500000Y-17550000D02*
X62000000Y-17550000D01*
X61375000Y-17550000D02*
X62000000Y-17550000D01*
X60635000Y-18290000D02*
X61375000Y-17550000D01*
X60635000Y-21300000D02*
X60635000Y-18290000D01*
X49875000Y-17550000D02*
X57375000Y-17550000D01*
X57375000Y-17550000D02*
X58000000Y-17550000D01*
X49550000Y-17875000D02*
X49875000Y-17550000D01*
X49550000Y-18500000D02*
X49550000Y-17875000D01*
X48700000Y-18500000D02*
X49550000Y-18500000D01*
X47864998Y-18500000D02*
X48700000Y-18500000D01*
X47050000Y-19314998D02*
X47864998Y-18500000D01*
X47050000Y-24500000D02*
X47050000Y-19314998D01*
X98450000Y-21700000D02*
X98450000Y-17700000D01*
X98450000Y-23200000D02*
X98450000Y-21700000D01*
X89550000Y-17700000D02*
X89550000Y-23200000D01*
X89650000Y-23300000D02*
X89550000Y-23200000D01*
X92400000Y-23300000D02*
X89650000Y-23300000D01*
X90800000Y-17700000D02*
X98450000Y-17700000D01*
X89550000Y-17700000D02*
X90800000Y-17700000D01*
X88100000Y-21500000D02*
X87000000Y-21500000D01*
X89550000Y-22950000D02*
X88100000Y-21500000D01*
X89550000Y-23200000D02*
X89550000Y-22950000D01*
X63450000Y-17550000D02*
X64000000Y-17000000D01*
X62000000Y-17550000D02*
X63450000Y-17550000D01*
G04 #@! TO.N,Net-(C2-Pad1)*
X58095000Y-19545000D02*
X58000000Y-19450000D01*
X58095000Y-21300000D02*
X58095000Y-19545000D01*
G04 #@! TO.N,+5V*
X61905000Y-19545000D02*
X62000000Y-19450000D01*
X61905000Y-21300000D02*
X61905000Y-19545000D01*
X44939340Y-37000000D02*
X46000000Y-37000000D01*
X36128998Y-37000000D02*
X44939340Y-37000000D01*
X35053997Y-38075001D02*
X36128998Y-37000000D01*
X27075001Y-38075001D02*
X35053997Y-38075001D01*
X26000000Y-37000000D02*
X27075001Y-38075001D01*
X56128998Y-37000000D02*
X64939340Y-37000000D01*
X55053997Y-38075001D02*
X56128998Y-37000000D01*
X64939340Y-37000000D02*
X66000000Y-37000000D01*
X47075001Y-38075001D02*
X55053997Y-38075001D01*
X46000000Y-37000000D02*
X47075001Y-38075001D01*
X91300000Y-33050000D02*
X91300000Y-32000000D01*
X93626001Y-38075001D02*
X94185001Y-37516001D01*
X94185001Y-37516001D02*
X94185001Y-35935001D01*
X87075001Y-38075001D02*
X93626001Y-38075001D01*
X94185001Y-35935001D02*
X91300000Y-33050000D01*
X86000000Y-37000000D02*
X87075001Y-38075001D01*
X84939340Y-37000000D02*
X86000000Y-37000000D01*
X76128998Y-37000000D02*
X84939340Y-37000000D01*
X75053997Y-38075001D02*
X76128998Y-37000000D01*
X67075001Y-38075001D02*
X75053997Y-38075001D01*
X66000000Y-37000000D02*
X67075001Y-38075001D01*
X47700000Y-35300000D02*
X47700000Y-32000000D01*
X46000000Y-37000000D02*
X47700000Y-35300000D01*
X75250000Y-37000000D02*
X76128998Y-37000000D01*
X71300000Y-33050000D02*
X75250000Y-37000000D01*
X71300000Y-32000000D02*
X71300000Y-33050000D01*
X27700000Y-35300000D02*
X26000000Y-37000000D01*
X27700000Y-32000000D02*
X27700000Y-35300000D01*
X91950000Y-32000000D02*
X91300000Y-32000000D01*
X96500000Y-27450000D02*
X91950000Y-32000000D01*
X91300000Y-32000000D02*
X90350000Y-32000000D01*
X73575001Y-22324999D02*
X80674999Y-22324999D01*
X73500000Y-22400000D02*
X73575001Y-22324999D01*
X80674999Y-22324999D02*
X84500000Y-26150000D01*
X73500000Y-23500000D02*
X73500000Y-22400000D01*
X84500000Y-26150000D02*
X84350000Y-26000000D01*
X90350000Y-32000000D02*
X84500000Y-26150000D01*
X61905000Y-21750000D02*
X61905000Y-21300000D01*
X63655000Y-23500000D02*
X61905000Y-21750000D01*
X73500000Y-23500000D02*
X63655000Y-23500000D01*
G04 #@! TO.N,Net-(C4-Pad2)*
X59365000Y-19585000D02*
X59500000Y-19450000D01*
X59365000Y-21300000D02*
X59365000Y-19585000D01*
G04 #@! TO.N,Net-(C5-Pad2)*
X51450000Y-18500000D02*
X51450000Y-20350000D01*
X55555000Y-20850000D02*
X55555000Y-21300000D01*
X55005000Y-20300000D02*
X55555000Y-20850000D01*
X54655000Y-20300000D02*
X55005000Y-20300000D01*
X54605000Y-20350000D02*
X54655000Y-20300000D01*
X51450000Y-20350000D02*
X54605000Y-20350000D01*
G04 #@! TO.N,Net-(J1-Pad1)*
X96100000Y-23300000D02*
X95600000Y-23300000D01*
X96500000Y-23700000D02*
X96100000Y-23300000D01*
X96500000Y-26000000D02*
X96500000Y-23700000D01*
D26*
G04 #@! TO.N,D1_P*
X88858198Y-35288198D02*
X90570000Y-37000000D01*
X80270000Y-26700000D02*
X88858198Y-35288198D01*
X64445000Y-26700000D02*
X80270000Y-26700000D01*
G04 #@! TO.N,D2_P*
X61905000Y-26700000D02*
X61905000Y-27150000D01*
X68858198Y-35288198D02*
X70570000Y-37000000D01*
X61495000Y-27925000D02*
X68858198Y-35288198D01*
X61495000Y-27560000D02*
X61495000Y-27925000D01*
X61905000Y-27150000D02*
X61495000Y-27560000D01*
G04 #@! TO.N,D3_P*
X58955000Y-27560000D02*
X58955000Y-28363200D01*
X59365000Y-27150000D02*
X58955000Y-27560000D01*
X59365000Y-26700000D02*
X59365000Y-27150000D01*
X58955000Y-28363200D02*
X52593200Y-34725000D01*
X51451397Y-34725000D02*
X50570000Y-35606397D01*
X50570000Y-35606397D02*
X50570000Y-37000000D01*
X52593200Y-34725000D02*
X51451397Y-34725000D01*
G04 #@! TO.N,D4_P*
X30570000Y-35606397D02*
X30570000Y-37000000D01*
X39026397Y-27150000D02*
X30570000Y-35606397D01*
X54414998Y-27150000D02*
X39026397Y-27150000D01*
X56375000Y-27470002D02*
X56095001Y-27750001D01*
X56095001Y-27750001D02*
X55014999Y-27750001D01*
X56375000Y-27150000D02*
X56375000Y-27470002D01*
X55014999Y-27750001D02*
X54414998Y-27150000D01*
X56825000Y-26700000D02*
X56375000Y-27150000D01*
G04 #@! TO.N,D1_N*
X88540000Y-35606397D02*
X88540000Y-37000000D01*
X80083603Y-27150000D02*
X88540000Y-35606397D01*
X65585002Y-27150000D02*
X80083603Y-27150000D01*
X64985001Y-27750001D02*
X65585002Y-27150000D01*
X63625000Y-27470002D02*
X63904999Y-27750001D01*
X63904999Y-27750001D02*
X64985001Y-27750001D01*
X63625000Y-27150000D02*
X63625000Y-27470002D01*
X63175000Y-26700000D02*
X63625000Y-27150000D01*
G04 #@! TO.N,D2_N*
X60635000Y-26700000D02*
X60635000Y-27150000D01*
X61045000Y-28111397D02*
X68540000Y-35606397D01*
X61045000Y-27560000D02*
X61045000Y-28111397D01*
X68540000Y-35606397D02*
X68540000Y-37000000D01*
X60635000Y-27150000D02*
X61045000Y-27560000D01*
G04 #@! TO.N,D3_N*
X58095000Y-27150000D02*
X58505000Y-27560000D01*
X58505000Y-27560000D02*
X58505000Y-28176800D01*
X58095000Y-26700000D02*
X58095000Y-27150000D01*
X58505000Y-28176800D02*
X52406800Y-34275000D01*
X50251802Y-35288198D02*
X48540000Y-37000000D01*
X51265000Y-34275000D02*
X50251802Y-35288198D01*
X52406800Y-34275000D02*
X51265000Y-34275000D01*
G04 #@! TO.N,D4_N*
X38840000Y-26700000D02*
X30251802Y-35288198D01*
X30251802Y-35288198D02*
X28540000Y-37000000D01*
X55555000Y-26700000D02*
X38840000Y-26700000D01*
G04 #@! TO.N,/DP*
X63585000Y-20089213D02*
X63585000Y-20440000D01*
X63585000Y-20440000D02*
X63175000Y-20850000D01*
X64899213Y-18775000D02*
X63585000Y-20089213D01*
X88593200Y-26275000D02*
X81093200Y-18775000D01*
X93906800Y-26275000D02*
X88593200Y-26275000D01*
X94175000Y-25200001D02*
X94175000Y-26006800D01*
X94000000Y-23300000D02*
X94000000Y-25025001D01*
X94000000Y-25025001D02*
X94175000Y-25200001D01*
X94175000Y-26006800D02*
X93906800Y-26275000D01*
X63175000Y-20850000D02*
X63175000Y-21300000D01*
X81093200Y-18775000D02*
X64899213Y-18775000D01*
G04 #@! TO.N,/DN*
X64445000Y-20850000D02*
X64445000Y-21300000D01*
X64035000Y-20440000D02*
X64445000Y-20850000D01*
X65085613Y-19225000D02*
X64035000Y-20275613D01*
X88406800Y-26725000D02*
X80906800Y-19225000D01*
X80906800Y-19225000D02*
X65085613Y-19225000D01*
X94093200Y-26725000D02*
X88406800Y-26725000D01*
X64035000Y-20275613D02*
X64035000Y-20440000D01*
X94625000Y-26193200D02*
X94093200Y-26725000D01*
X94625000Y-25200001D02*
X94625000Y-26193200D01*
X94800000Y-25025001D02*
X94625000Y-25200001D01*
X94800000Y-23300000D02*
X94800000Y-25025001D01*
G04 #@! TD*
M02*
